<?xml version="1.0" encoding="iso-8859-1"?>
<!-- Generator: Adobe Illustrator 19.0.0, SVG Export Plug-In . SVG Version: 6.00 Build 0)  -->
<svg version="1.1" id="Capa_1" xmlns="http://www.w3.org/2000/svg" xmlns:xlink="http://www.w3.org/1999/xlink" x="0px" y="0px"
	 viewBox="0 0 512 512" style="enable-background:new 0 0 512 512;" xml:space="preserve">
<g>
	<g>
		<path d="M507.673,129.37L382.629,4.326c-3.342-3.342-8.08-4.881-12.747-4.145l-59.396,9.378c-3.083,0.487-5.932,1.938-8.14,4.145
			l-51.581,51.581c-2.208,2.208-3.659,5.057-4.145,8.14l-9.378,59.396c-0.736,4.667,0.803,9.406,4.145,12.747l23.354,23.354
			l-12.392,4.324c-2.099,0.733-4.005,1.929-5.578,3.501l-70.024,70.025c-1.572,1.571-2.77,3.479-3.501,5.578l-4.324,12.393
			l-23.355-23.355c-3.342-3.342-8.082-4.882-12.747-4.145l-59.395,9.378c-3.083,0.487-5.932,1.938-8.14,4.145l-51.581,51.581
			c-2.208,2.208-3.659,5.057-4.145,8.14l-9.378,59.396c-0.737,4.667,0.803,9.406,4.145,12.747l125.044,125.044
			c2.791,2.791,6.557,4.326,10.442,4.326c0.765,0,1.537-0.06,2.305-0.181l59.395-9.378c3.083-0.487,5.932-1.938,8.14-4.145
			l51.582-51.58c2.208-2.208,3.659-5.057,4.145-8.141l9.377-59.396c0.736-4.667-0.803-9.406-4.145-12.747l-23.354-23.354
			l12.392-4.324c2.099-0.733,4.005-1.929,5.578-3.501l70.024-70.025c1.572-1.571,2.77-3.479,3.501-5.578l4.324-12.393l23.355,23.355
			c2.791,2.791,6.557,4.326,10.442,4.326c0.765,0,1.537-0.06,2.305-0.181l59.395-9.378c3.083-0.487,5.932-1.938,8.14-4.145
			l51.581-51.581c2.208-2.207,3.659-5.057,4.145-8.14l9.378-59.396C512.556,137.448,511.014,132.71,507.673,129.37z
			 M236.951,429.223l-44.789,44.789l-47.223,7.456L30.531,367.06l7.456-47.222l44.788-44.789l47.223-7.456L244.406,382
			L236.951,429.223z M311.976,246.728l-65.247,65.248l-22.665,7.908l-31.951-31.951l7.908-22.664l65.247-65.248l22.665-7.908
			l31.951,31.951L311.976,246.728z M474.011,192.16l-44.788,44.789L382,244.406L267.593,129.998l7.456-47.223l44.788-44.788
			l47.224-7.456l114.407,114.408L474.011,192.16z"/>
	</g>
</g>
<g>
</g>
<g>
</g>
<g>
</g>
<g>
</g>
<g>
</g>
<g>
</g>
<g>
</g>
<g>
</g>
<g>
</g>
<g>
</g>
<g>
</g>
<g>
</g>
<g>
</g>
<g>
</g>
<g>
</g>
</svg>
