<?xml version="1.0" encoding="iso-8859-1"?>
<!-- Generator: Adobe Illustrator 19.0.0, SVG Export Plug-In . SVG Version: 6.00 Build 0)  -->
<svg version="1.1" id="Capa_1" xmlns="http://www.w3.org/2000/svg" xmlns:xlink="http://www.w3.org/1999/xlink" x="0px" y="0px"
	 viewBox="0 0 512 512" style="enable-background:new 0 0 512 512;" xml:space="preserve">
<g>
	<g>
		<path d="M296.017,373.164c-5.522,0-10.004,4.482-10.004,10.004c0,5.522,4.482,10.004,10.004,10.004s10.004-4.482,10.004-10.004
			C306.021,377.645,301.539,373.164,296.017,373.164z"/>
	</g>
</g>
<g>
	<g>
		<path d="M285.121,411.53c-4.619-3.032-10.82-1.746-13.854,2.874c-7.143,10.882-16.694,20.188-27.623,26.912
			c-11.33,6.974-24.354,10.66-37.662,10.66c-13.308,0-26.333-3.687-37.662-10.66c-4.706-2.896-10.867-1.43-13.764,3.275
			c-2.898,4.705-1.432,10.867,3.273,13.764c14.486,8.917,31.137,13.63,48.152,13.63s33.665-4.713,48.15-13.629
			c13.41-8.251,25.12-19.653,33.865-32.973C291.026,420.764,289.739,414.563,285.121,411.53z"/>
	</g>
</g>
<g>
	<g>
		<path d="M476.091,60.037c-5.524,0-10.004,4.479-10.004,10.004v103.042c0,8.01-3.123,15.546-8.795,21.217
			c-5.671,5.671-13.206,8.796-21.218,8.796c-16.549,0-30.012-13.464-30.012-30.012V94.051c0-25.147-10.36-49.749-28.426-67.501
			C359.803,9.028,336.5-0.372,311.946,0.011h-24.834c-0.059,0-0.116,0-0.175,0.001c-23.497,0.41-45.831,10.038-62.887,27.109
			c-14.499,14.511-23.865,33.031-26.945,52.922h-53.352c-6.45,0-12.769,1.231-18.782,3.659c-0.084,0.034-0.171,0.07-0.258,0.109
			c-29.652,12.103-51.261,39.239-56.419,70.873c-0.016,0.095-0.03,0.19-0.043,0.286l-2.241,16.787
			c-0.059,0.438-0.088,0.881-0.088,1.323v61.129l-35.05,55.447c-3.25,4.926-4.967,10.643-4.967,16.541v49.94
			c0,6.777,2.331,13.432,6.574,18.756l57.801,72.24c11.929,18.218,28.02,33.879,46.581,45.305
			C157.655,505.236,181.556,512,205.98,512c24.424,0,48.325-6.764,69.12-19.562c18.562-11.427,34.654-27.089,46.583-45.31
			l57.807-72.251c4.232-5.309,6.564-11.965,6.564-18.742V266.18c0-5.843-1.686-11.509-4.877-16.404l-35.139-59.421v-17.272
			c0-0.445-0.029-0.89-0.089-1.333l-2.261-16.827c-0.013-0.093-0.026-0.186-0.041-0.278c-2.555-15.663-9.141-30.494-19.043-42.887
			c-9.886-12.385-22.891-22.088-37.619-28.063c-5.988-2.423-12.304-3.651-18.769-3.651h-50.795
			c6.7-33.342,36.058-59.394,69.782-60.024h24.83c0.059,0,0.117,0,0.176-0.001c0.418-0.007,0.833-0.011,1.252-0.011
			c18.696,0,36.464,7.363,50.152,20.813c14.262,14.014,22.441,33.415,22.441,53.23v79.032c0,27.581,22.439,50.02,50.02,50.02
			c13.355,0,25.915-5.205,35.366-14.655c9.45-9.451,14.654-22.01,14.654-35.365V70.041
			C486.095,64.516,481.615,60.037,476.091,60.037z M48.116,362.405c-1.419-1.78-2.2-4.006-2.2-6.269v-49.94h-0.001
			c0-1.982,0.582-3.905,1.686-5.56c0.043-0.066,0.086-0.132,0.129-0.199l18.194-28.781v93.834c0,7.066,0.525,14.109,1.523,21.076
			L48.116,362.405z M346.038,365.491V229.662l18.038,30.506c0.09,0.153,0.185,0.304,0.283,0.452c1.103,1.656,1.686,3.578,1.686,5.56
			v89.957c0,2.263-0.781,4.489-2.189,6.255l-19.309,24.134C345.532,379.592,346.038,372.567,346.038,365.491z M276.01,343.151
			V101.087c1.171,0.315,2.328,0.694,3.462,1.154c11.547,4.684,21.746,12.292,29.498,22.005c7.736,9.681,12.89,21.259,14.907,33.487
			l2.152,16.02v191.74c0,25.002-7.194,49.298-20.807,70.264c-0.002,0.003-0.004,0.006-0.006,0.009
			c-0.006,0.01-0.013,0.019-0.019,0.029c-10.352,15.939-24.386,29.634-40.586,39.606c-17.639,10.855-37.913,16.593-58.632,16.593
			c-20.718,0-40.994-5.737-58.631-16.592c-16.2-9.974-30.233-23.67-40.587-39.607c-0.006-0.01-0.013-0.019-0.019-0.029
			c-0.002-0.003-0.004-0.006-0.006-0.009c-0.001-0.001-0.002-0.003-0.003-0.004c-1.507-2.319-2.99-4.781-4.408-7.315
			c-10.726-19.183-16.396-40.95-16.396-62.945V173.747l2.134-15.981c4.096-24.801,21.087-46.058,44.372-55.496
			c0.068-0.027,0.139-0.057,0.209-0.088c1.086-0.431,2.191-0.789,3.306-1.089v242.058c0,19.297,32.048,50.02,70.029,50.02
			C243.962,393.172,276.01,362.448,276.01,343.151z M215.984,270.122v20.008h-20.008v-20.008H215.984z M195.976,193.09v-43.018
			c0-5.516,4.488-10.004,10.004-10.004c2.669,0,5.181,1.041,7.071,2.932c1.892,1.891,2.933,4.402,2.933,7.072v43.018
			c0,5.516-4.489,10.004-10.004,10.004C200.464,203.094,195.976,198.606,195.976,193.09z M215.984,310.138v23.009h-20.008v-23.009
			H215.984z M256.001,100.052v243.093c-0.059,2.251-4.313,9.826-13.879,17.137c-4.979,3.805-14.203,9.632-26.138,11.911v-19.038
			h10.004c5.524,0,10.004-4.479,10.004-10.004v-83.034c0-5.525-4.48-10.004-10.004-10.004h-10.004v-28.732
			c11.644-4.13,20.008-15.249,20.008-28.292v-43.018c0-8.013-3.122-15.549-8.794-21.221c-5.67-5.669-13.205-8.792-21.219-8.792
			c-16.549,0-30.012,13.464-30.012,30.012v43.018c0,13.041,8.364,24.162,20.008,28.292v28.732h-10.004
			c-5.524,0-10.004,4.479-10.004,10.004v83.034c0,5.525,4.48,10.004,10.004,10.004h10.004v19.038
			c-11.935-2.278-21.159-8.106-26.138-11.911c-9.567-7.311-13.82-14.886-13.879-17.131V100.052H256.001z"/>
	</g>
</g>
<g>
</g>
<g>
</g>
<g>
</g>
<g>
</g>
<g>
</g>
<g>
</g>
<g>
</g>
<g>
</g>
<g>
</g>
<g>
</g>
<g>
</g>
<g>
</g>
<g>
</g>
<g>
</g>
<g>
</g>
</svg>
