<svg xmlns="http://www.w3.org/2000/svg" xmlns:xlink="http://www.w3.org/1999/xlink" viewBox="0 0 80.672 95.385">
  <defs>
    <style>
      .cls-1 {
        fill: #f11d72;
      }

      .cls-2 {
        filter: url(#Path_402);
      }

      .cls-3 {
        filter: url(#Path_401);
      }
    </style>
    <filter id="Path_401" x="0" y="0" width="80.672" height="95.385" filterUnits="userSpaceOnUse">
      <feOffset input="SourceAlpha"/>
      <feGaussianBlur stdDeviation="3" result="blur"/>
      <feFlood flood-color="#f11d72"/>
      <feComposite operator="in" in2="blur"/>
      <feComposite in="SourceGraphic"/>
    </filter>
    <filter id="Path_402" x="9.923" y="10.007" width="60.829" height="74.632" filterUnits="userSpaceOnUse">
      <feOffset input="SourceAlpha"/>
      <feGaussianBlur stdDeviation="3" result="blur-2"/>
      <feFlood flood-color="#f11d72"/>
      <feComposite operator="in" in2="blur-2"/>
      <feComposite in="SourceGraphic"/>
    </filter>
  </defs>
  <g id="Group_1587" data-name="Group 1587" transform="translate(-15900.671 -1852.409)">
    <g class="cls-3" transform="matrix(1, 0, 0, 1, 15900.67, 1852.41)">
      <path id="Path_401-2" data-name="Path 401" class="cls-1" d="M108.184,7.861,83,.433a10.546,10.546,0,0,0-5.98,0L51.828,7.861a4.429,4.429,0,0,0-3.158,4.224v20.86A47.62,47.62,0,0,0,78.341,77.057a4.394,4.394,0,0,0,3.33,0,47.62,47.62,0,0,0,29.671-44.112V12.085A4.428,4.428,0,0,0,108.184,7.861Zm-.365,25.083A44.1,44.1,0,0,1,80.343,73.793a.889.889,0,0,1-.674,0A44.1,44.1,0,0,1,52.193,32.945V12.085a.886.886,0,0,1,.632-.845L78.013,3.812a7.03,7.03,0,0,1,3.986,0l25.188,7.428a.886.886,0,0,1,.632.845Z" transform="translate(-39.67 9)"/>
    </g>
    <g class="cls-2" transform="matrix(1, 0, 0, 1, 15900.67, 1852.41)">
      <path id="Path_402-2" data-name="Path 402" class="cls-1" d="M155.248,71.854l-18.773-5.536a2.636,2.636,0,0,0-1.494,0l-18.772,5.536a2.658,2.658,0,0,0-1.9,2.535V89.147a37.438,37.438,0,0,0,6.822,21.632,37.926,37.926,0,0,0,13.37,11.762,2.637,2.637,0,0,0,2.447,0,37.927,37.927,0,0,0,13.37-11.762,37.438,37.438,0,0,0,6.822-21.632V74.389A2.658,2.658,0,0,0,155.248,71.854ZM153.62,89.147a33.932,33.932,0,0,1-6.181,19.606,34.411,34.411,0,0,1-11.71,10.447,34.412,34.412,0,0,1-11.71-10.447,33.932,33.932,0,0,1-6.181-19.606v-14.1l17.892-5.277,17.892,5.277Z" transform="translate(-95.39 -47.2)"/>
    </g>
  </g>
</svg>
