<?xml version="1.0" standalone="no"?>
<!DOCTYPE svg PUBLIC "-//W3C//DTD SVG 20010904//EN"
 "http://www.w3.org/TR/2001/REC-SVG-20010904/DTD/svg10.dtd">
<svg version="1.0" xmlns="http://www.w3.org/2000/svg"
 width="144.000000pt" height="144.000000pt" viewBox="0 0 144.000000 144.000000"
 preserveAspectRatio="xMidYMid meet">
<metadata>
Created by potrace 1.11, written by Peter Selinger 2001-2013
</metadata>
<g transform="translate(0.000000,144.000000) scale(0.100000,-0.100000)"
fill="#000000" stroke="none">
<path d="M180 1105 c0 -261 3 -335 13 -336 51 -5 261 -3 269 2 7 5 11 114 10
325 0 176 -1 325 -1 332 -1 9 -37 12 -146 12 l-145 0 0 -335z"/>
<path d="M575 1110 c0 -237 3 -333 12 -338 6 -4 71 -7 145 -6 l133 1 3 336 2
337 -147 0 -148 0 0 -330z"/>
<path d="M973 1103 l2 -337 143 -1 c78 -1 143 1 143 5 1 3 2 94 3 203 1 132
-3 215 -11 248 -29 113 -123 198 -235 213 l-47 6 2 -337z"/>
<path d="M180 340 l0 -337 418 0 c475 1 481 1 564 76 53 48 82 96 94 155 5 30
10 380 5 432 -1 8 -99 11 -356 11 l-355 0 0 -147 0 -148 178 0 c97 0 192 -1
210 -1 31 -1 32 -2 32 -44 l0 -42 -247 0 -248 0 0 191 0 191 -147 0 -148 0 0
-337z"/>
</g>
</svg>
