<svg id="clock" xmlns="http://www.w3.org/2000/svg" viewBox="0 0 36 36">
  <defs>
    <style>
      .cls-1 {
        fill: #2699fb;
      }
    </style>
  </defs>
  <path id="Path_211" data-name="Path 211" class="cls-1" d="M18,0A18,18,0,1,0,36,18,18.02,18.02,0,0,0,18,0Zm0,34.8A16.8,16.8,0,1,1,34.8,18,16.819,16.819,0,0,1,18,34.8Z"/>
  <path id="Path_212" data-name="Path 212" class="cls-1" d="M25.8,21.564V15.479a.6.6,0,1,0-1.2,0v6.085a2.4,2.4,0,0,0-1.715,1.715H18.6a.6.6,0,0,0,0,1.2h4.285A2.395,2.395,0,1,0,25.8,21.564Zm-.6,3.515a1.2,1.2,0,1,1,1.2-1.2A1.2,1.2,0,0,1,25.2,25.079Z" transform="translate(-7.2 -5.952)"/>
  <path id="Path_213" data-name="Path 213" class="cls-1" d="M29.6,8.679a.6.6,0,0,0,.6-.6v-.6a.6.6,0,0,0-1.2,0v.6A.6.6,0,0,0,29.6,8.679Z" transform="translate(-11.6 -2.752)"/>
  <path id="Path_214" data-name="Path 214" class="cls-1" d="M29.6,49.879a.6.6,0,0,0-.6.6v.6a.6.6,0,0,0,1.2,0v-.6A.6.6,0,0,0,29.6,49.879Z" transform="translate(-11.6 -19.952)"/>
  <path id="Path_215" data-name="Path 215" class="cls-1" d="M51.2,28.879h-.6a.6.6,0,0,0,0,1.2h.6a.6.6,0,1,0,0-1.2Z" transform="translate(-20 -11.552)"/>
  <path id="Path_216" data-name="Path 216" class="cls-1" d="M8.2,28.879H7.6a.6.6,0,0,0,0,1.2h.6a.6.6,0,1,0,0-1.2Z" transform="translate(-2.8 -11.552)"/>
  <path id="Path_217" data-name="Path 217" class="cls-1" d="M44.449,13.5l-.424.424a.6.6,0,1,0,.848.848l.424-.424a.6.6,0,1,0-.848-.848Z" transform="translate(-17.54 -5.329)"/>
  <path id="Path_218" data-name="Path 218" class="cls-1" d="M14.044,43.9l-.424.424a.6.6,0,1,0,.848.848l.424-.424a.6.6,0,0,0-.848-.848Z" transform="translate(-5.378 -17.491)"/>
  <path id="Path_219" data-name="Path 219" class="cls-1" d="M44.873,43.9a.6.6,0,1,0-.848.848l.424.424a.6.6,0,0,0,.848-.848Z" transform="translate(-17.54 -17.491)"/>
  <path id="Path_220" data-name="Path 220" class="cls-1" d="M14.468,13.5a.6.6,0,1,0-.848.848l.424.424a.6.6,0,1,0,.848-.848Z" transform="translate(-5.378 -5.329)"/>
</svg>
