<svg xmlns="http://www.w3.org/2000/svg" viewBox="0 0 21.621 21.62">
  <defs>
    <style>
      .cls-1 {
        fill: #fff;
      }
    </style>
  </defs>
  <g id="pen" transform="translate(0 -0.097)">
    <path id="Path_1049" data-name="Path 1049" class="cls-1" d="M251.142.241A.493.493,0,0,0,250.788.1a.514.514,0,0,0-.354.144L243.3,7.378l-.02.02-.01.01c-.01.015-.025.03-.035.045s0,0,0,.01-.015.025-.025.04-.005.01-.01.015-.01.025-.015.04-.005,0-.005.01L241.9,11.4a.491.491,0,0,0,.12.508.5.5,0,0,0,.354.144.594.594,0,0,0,.16-.025l3.823-1.276s0,0,.01,0a.178.178,0,0,0,.045-.02.018.018,0,0,0,.01-.005c.015-.01.035-.02.05-.03s.03-.025.045-.035.01,0,.01-.01.015-.01.02-.02l7.141-7.142a.5.5,0,0,0,0-.7Zm-7.276,8.413,1.41,1.41-2.113.7Zm2.332.922-1.844-1.844L250.788,1.3l1.844,1.844Zm0,0" transform="translate(-232.213 0)"/>
    <path id="Path_1050" data-name="Path 1050" class="cls-1" d="M17.752,90.379a.5.5,0,0,0-.5.5v9.315a1.5,1.5,0,0,1-1.5,1.5H2.492a1.5,1.5,0,0,1-1.5-1.5V86.926a1.5,1.5,0,0,1,1.5-1.5h9.314a.5.5,0,1,0,0-1H2.492A2.493,2.493,0,0,0,0,86.926v13.267a2.493,2.493,0,0,0,2.492,2.492H15.759a2.493,2.493,0,0,0,2.492-2.492V90.878A.5.5,0,0,0,17.752,90.379Zm0,0" transform="translate(0 -80.968)"/>
  </g>
</svg>
