<svg id="error" xmlns="http://www.w3.org/2000/svg" viewBox="0 0 384.445 512">
  <defs>
    <style>
      .cls-1 {
        fill: #fff;
        fill-rule: evenodd;
      }
    </style>
  </defs>
  <path id="Path_1093" data-name="Path 1093" class="cls-1" d="M10,402a10,10,0,0,0,10-10V20H364.445V40a10,10,0,0,0,20,0V10a10,10,0,0,0-10-10H10A10,10,0,0,0,0,10V392A10,10,0,0,0,10,402Zm0,0"/>
  <path id="Path_1094" data-name="Path 1094" class="cls-1" d="M374.445,110a10,10,0,0,0-10,10V387.98h-94.02a10,10,0,0,0-10,10V492H20V472a10,10,0,0,0-20,0v30a10,10,0,0,0,10,10H270.426c.051,0,.1-.008.156-.008.273,0,.547-.016.82-.039.168-.016.332-.051.5-.074s.316-.039.469-.07c.168-.031.332-.082.5-.121.148-.039.3-.07.449-.113s.3-.109.457-.164.313-.1.465-.164c.137-.059.27-.129.4-.191.164-.074.328-.145.484-.227.125-.066.246-.145.367-.219.16-.094.32-.18.473-.285s.277-.2.414-.3.258-.18.379-.281a8.5,8.5,0,0,0,.738-.668l104.02-104.02a9.6,9.6,0,0,0,.867-1.008c.07-.086.137-.176.2-.266a10.353,10.353,0,0,0,.691-1.1c.012-.023.02-.047.031-.07a9.852,9.852,0,0,0,.492-1.121c.039-.1.078-.207.113-.312a10.375,10.375,0,0,0,.344-1.238.076.076,0,0,1,0-.027,10.272,10.272,0,0,0,.152-1.254c.012-.113.016-.227.02-.34s.016-.223.016-.336V120A10,10,0,0,0,374.445,110Zm-94.02,367.855V407.98H350.3Zm0,0"/>
  <path id="Path_1095" data-name="Path 1095" class="cls-1" d="M94.223,308.785c25.008-20.148,60.727-31.707,98-31.707s72.992,11.559,98,31.707a10,10,0,1,0,12.547-15.574c-28.5-22.961-68.793-36.133-110.547-36.133S110.172,270.25,81.676,293.211a10,10,0,1,0,12.547,15.574Zm0,0"/>
  <path id="Path_1096" data-name="Path 1096" class="cls-1" d="M303.566,107.926a10,10,0,0,0-14.141,0l-22.6,22.6-22.6-22.6a10,10,0,0,0-14.141,14.141l22.6,22.6-22.6,22.6a10,10,0,0,0,14.141,14.141l22.6-22.6,22.6,22.6a10,10,0,0,0,14.141-14.141l-22.6-22.6,22.6-22.6A10,10,0,0,0,303.566,107.926Zm0,0"/>
  <path id="Path_1097" data-name="Path 1097" class="cls-1" d="M80.879,181.406a10,10,0,0,0,14.141,0l22.6-22.6,22.6,22.6a10,10,0,0,0,14.145-14.141l-22.6-22.6,22.6-22.6a10,10,0,0,0-14.145-14.141l-22.6,22.6-22.6-22.6a10,10,0,0,0-14.141,14.141l22.6,22.6-22.6,22.6A10,10,0,0,0,80.879,181.406Zm0,0"/>
  <path id="Path_1098" data-name="Path 1098" class="cls-1" d="M10,442A10,10,0,1,0,0,432,10.017,10.017,0,0,0,10,442Zm0,0"/>
  <path id="Path_1099" data-name="Path 1099" class="cls-1" d="M374.445,70a10,10,0,1,0,10,10A10.017,10.017,0,0,0,374.445,70Zm0,0"/>
</svg>
