<svg xmlns="http://www.w3.org/2000/svg" xmlns:xlink="http://www.w3.org/1999/xlink" viewBox="0 0 80.854 80.854">
  <defs>
    <style>
      .cls-1 {
        fill: #f11d72;
      }

      .cls-2 {
        fill: #132357;
      }

      .cls-3 {
        filter: url(#Ellipse_114);
      }
    </style>
    <filter id="Ellipse_114" x="0" y="0" width="80.854" height="80.854" filterUnits="userSpaceOnUse">
      <feOffset input="SourceAlpha"/>
      <feGaussianBlur stdDeviation="6" result="blur"/>
      <feFlood flood-color="#f11d72"/>
      <feComposite operator="in" in2="blur"/>
      <feComposite in="SourceGraphic"/>
    </filter>
  </defs>
  <g id="Group_1230" data-name="Group 1230" transform="translate(18 18)">
    <g class="cls-3" transform="matrix(1, 0, 0, 1, -18, -18)">
      <ellipse id="Ellipse_114-2" data-name="Ellipse 114" class="cls-1" cx="22.427" cy="22.427" rx="22.427" ry="22.427" transform="translate(18 18)"/>
    </g>
    <g id="console" transform="translate(9.437 13.632)">
      <g id="Group_1219" data-name="Group 1219" transform="translate(0 0)">
        <g id="Group_1218" data-name="Group 1218" transform="translate(0)">
          <path id="Path_1033" data-name="Path 1033" class="cls-2" d="M26.8,67.289a25.03,25.03,0,0,0-.735-4.843,18.587,18.587,0,0,0-1.5-4.075c-2.338-4.108-4.876-3.473-7.916-2.672a21.755,21.755,0,0,1-3.073.6h-.334a21.755,21.755,0,0,1-3.073-.6c-3.039-.768-5.578-1.436-7.916,2.705A17.027,17.027,0,0,0,.75,62.48a25.03,25.03,0,0,0-.735,4.843A9.1,9.1,0,0,0,.482,71.13a2.531,2.531,0,0,0,1.6,1.5A3.266,3.266,0,0,0,4.223,72.4,15.7,15.7,0,0,0,8.5,69.36a7.374,7.374,0,0,1,4.91-1.5,7.374,7.374,0,0,1,4.91,1.5A15.7,15.7,0,0,0,22.592,72.4a3.494,3.494,0,0,0,2.138.234,2.5,2.5,0,0,0,1.6-1.536A8.93,8.93,0,0,0,26.8,67.289Zm-1.6,3.34a1.324,1.324,0,0,1-.8.835,2.306,2.306,0,0,1-1.369-.167,13.621,13.621,0,0,1-3.874-2.772,8.34,8.34,0,0,0-5.745-1.9A8.807,8.807,0,0,0,7.63,68.458,13.878,13.878,0,0,1,3.755,71.23a2.072,2.072,0,0,1-1.369.167,1.324,1.324,0,0,1-.8-.835,7.9,7.9,0,0,1-.334-3.206,23.038,23.038,0,0,1,.7-4.609,15.936,15.936,0,0,1,1.4-3.774c1.837-3.306,3.974-2.772,6.513-2.1a19.592,19.592,0,0,0,3.273.635h.5a19.349,19.349,0,0,0,3.306-.635c2.538-.635,4.676-1.2,6.513,2.1a15.4,15.4,0,0,1,1.4,3.774,25.279,25.279,0,0,1,.7,4.609A7.728,7.728,0,0,1,25.2,70.629Z" transform="translate(0 -55.109)"/>
        </g>
      </g>
      <g id="Group_1221" data-name="Group 1221" transform="translate(3.455 3.329)">
        <g id="Group_1220" data-name="Group 1220">
          <path id="Path_1034" data-name="Path 1034" class="cls-2" d="M48.253,97.319a2.029,2.029,0,0,0-1.2-.568,1.9,1.9,0,0,0-.534-1.169l-.033-.033a1.892,1.892,0,0,0-1.369-.568,1.972,1.972,0,0,0-1.369.568,1.941,1.941,0,0,0-.568,1.2,1.99,1.99,0,0,0-1.2.534l-.033.033a1.892,1.892,0,0,0-.568,1.369,1.972,1.972,0,0,0,.568,1.369,1.862,1.862,0,0,0,1.236.568,1.782,1.782,0,0,0,.568,1.2,1.892,1.892,0,0,0,1.369.568,1.972,1.972,0,0,0,1.369-.568,2.029,2.029,0,0,0,.568-1.2,1.782,1.782,0,0,0,1.2-.568,1.892,1.892,0,0,0,.568-1.369A1.972,1.972,0,0,0,48.253,97.319Zm-.835,1.87a.68.68,0,0,1-.5.2H46.45a.634.634,0,0,0-.635.635v.434a.7.7,0,1,1-1.4,0v-.468a.634.634,0,0,0-.635-.635H43.31a.685.685,0,0,1-.5-1.169l.033-.033a.8.8,0,0,1,.468-.167h.468a.634.634,0,0,0,.635-.635v-.468a.709.709,0,0,1,1.2-.5l.033.033a.8.8,0,0,1,.167.468v.468a.634.634,0,0,0,.635.635h.468a.709.709,0,0,1,.5,1.2Z" transform="translate(-41.373 -94.981)"/>
        </g>
      </g>
      <g id="Group_1223" data-name="Group 1223" transform="translate(18.05 3.496)">
        <g id="Group_1222" data-name="Group 1222" transform="translate(0 0)">
          <ellipse id="Ellipse_117" data-name="Ellipse 117" class="cls-2" cx="1.169" cy="1.169" rx="1.169" ry="1.169"/>
        </g>
      </g>
      <g id="Group_1225" data-name="Group 1225" transform="translate(18.05 8.239)">
        <g id="Group_1224" data-name="Group 1224" transform="translate(0 0)">
          <ellipse id="Ellipse_118" data-name="Ellipse 118" class="cls-2" cx="1.169" cy="1.169" rx="1.169" ry="1.169"/>
        </g>
      </g>
      <g id="Group_1227" data-name="Group 1227" transform="translate(15.679 5.867)">
        <g id="Group_1226" data-name="Group 1226">
          <ellipse id="Ellipse_119" data-name="Ellipse 119" class="cls-2" cx="1.169" cy="1.169" rx="1.169" ry="1.169"/>
        </g>
      </g>
      <g id="Group_1229" data-name="Group 1229" transform="translate(20.421 5.867)">
        <g id="Group_1228" data-name="Group 1228">
          <ellipse id="Ellipse_120" data-name="Ellipse 120" class="cls-2" cx="1.169" cy="1.169" rx="1.169" ry="1.169"/>
        </g>
      </g>
    </g>
  </g>
</svg>
