<svg xmlns="http://www.w3.org/2000/svg" xmlns:xlink="http://www.w3.org/1999/xlink" viewBox="0 0 80.854 80.854">
  <defs>
    <style>
      .cls-1 {
        fill: #f13e1d;
      }

      .cls-2 {
        fill: #132357;
      }

      .cls-3 {
        filter: url(#Ellipse_114);
      }
    </style>
    <filter id="Ellipse_114" x="0" y="0" width="80.854" height="80.854" filterUnits="userSpaceOnUse">
      <feOffset input="SourceAlpha"/>
      <feGaussianBlur stdDeviation="6" result="blur"/>
      <feFlood flood-color="#f13e1d"/>
      <feComposite operator="in" in2="blur"/>
      <feComposite in="SourceGraphic"/>
    </filter>
  </defs>
  <g id="Group_1113" data-name="Group 1113" transform="translate(18 18)">
    <g class="cls-3" transform="matrix(1, 0, 0, 1, -18, -18)">
      <ellipse id="Ellipse_114-2" data-name="Ellipse 114" class="cls-1" cx="22.427" cy="22.427" rx="22.427" ry="22.427" transform="translate(18 18)"/>
    </g>
    <g id="trophy" transform="translate(11.081 8.292)">
      <g id="Group_1110" data-name="Group 1110" transform="translate(0)">
        <g id="Group_1109" data-name="Group 1109" transform="translate(0)">
          <path id="Path_1015" data-name="Path 1015" class="cls-2" d="M59.643,2.627a1.971,1.971,0,0,0-1.5-.7h-1.9v-.6A1.338,1.338,0,0,0,54.9,0H41.994a1.337,1.337,0,0,0-1.336,1.336v.6h-1.9a1.971,1.971,0,0,0-1.5.7A1.947,1.947,0,0,0,36.81,4.2a10.2,10.2,0,0,0,5.182,7.282,13.449,13.449,0,0,0,.852,1.707,7.943,7.943,0,0,0,3.651,3.445,2.879,2.879,0,0,1-2.223,3.08l-.008,0a.63.63,0,0,0-.484.612v2.892H42.61a1.893,1.893,0,0,0-1.891,1.891v1.493a.63.63,0,0,0,.63.63H55.606a.63.63,0,0,0,.63-.63V25.115a1.893,1.893,0,0,0-1.891-1.891h-1.17V20.332a.63.63,0,0,0-.485-.613l-.008,0a2.877,2.877,0,0,1-2.221-3.107,7.988,7.988,0,0,0,3.59-3.419,13.459,13.459,0,0,0,.852-1.707A10.2,10.2,0,0,0,60.084,4.2,1.947,1.947,0,0,0,59.643,2.627ZM38.055,4a.679.679,0,0,1,.157-.557.712.712,0,0,1,.543-.251h1.9v1.16a19.809,19.809,0,0,0,.672,5.191A8.927,8.927,0,0,1,38.055,4Zm16.29,20.484a.631.631,0,0,1,.63.63v.862h-13v-.862a.631.631,0,0,1,.63-.63Zm-2.431-3.522v2.262H45.04V20.962ZM46.694,19.7a4.172,4.172,0,0,0,.426-.556,4.1,4.1,0,0,0,.651-2.164,4.942,4.942,0,0,0,1.415-.008A4.15,4.15,0,0,0,50.267,19.7H46.694Zm8.282-15.35a16.288,16.288,0,0,1-2.008,8.2c-1.234,2.076-2.839,3.22-4.52,3.22s-3.286-1.143-4.52-3.22a16.288,16.288,0,0,1-2.008-8.2V1.336a.075.075,0,0,1,.075-.075H54.9a.075.075,0,0,1,.075.075ZM58.84,4a8.928,8.928,0,0,1-3.275,5.543,19.81,19.81,0,0,0,.672-5.191V3.192h1.9a.712.712,0,0,1,.543.251A.679.679,0,0,1,58.84,4Z" transform="translate(-36.785)"/>
        </g>
      </g>
      <g id="Group_1112" data-name="Group 1112" transform="translate(7.804 3.692)">
        <g id="Group_1111" data-name="Group 1111" transform="translate(0)">
          <path id="Path_1016" data-name="Path 1016" class="cls-2" d="M191.164,72.172a.631.631,0,0,0-.509-.429l-1.9-.276-.851-1.724a.63.63,0,0,0-1.131,0l-.851,1.724-1.9.276a.63.63,0,0,0-.349,1.075l1.377,1.342-.325,1.895a.63.63,0,0,0,.915.665l1.7-.894,1.7.894a.63.63,0,0,0,.915-.665l-.325-1.895L191,72.818A.63.63,0,0,0,191.164,72.172Zm-2.653,1.317a.63.63,0,0,0-.181.558l.165.962-.864-.454a.631.631,0,0,0-.587,0l-.864.454.165-.962a.63.63,0,0,0-.181-.558l-.7-.682.966-.14a.631.631,0,0,0,.475-.345l.432-.876.432.876a.631.631,0,0,0,.475.345l.966.14Z" transform="translate(-183.479 -69.391)"/>
        </g>
      </g>
    </g>
  </g>
</svg>
