<svg xmlns="http://www.w3.org/2000/svg" viewBox="0 0 24.065 21.452">
  <defs>
    <style>
      .cls-1 {
        fill: #fff;
      }
    </style>
  </defs>
  <g id="home" transform="translate(0 0)">
    <g id="Group_1247" data-name="Group 1247">
      <g id="Group_1246" data-name="Group 1246" transform="translate(0 0)">
        <path id="Path_1035" data-name="Path 1035" class="cls-1" d="M23.809,36.27,12.4,27.918a.625.625,0,0,0-.739,0L.255,36.27a.625.625,0,0,0,.739,1.009L12.032,29.2,23.07,37.279a.625.625,0,0,0,.739-1.009Z" transform="translate(0.001 -27.798)"/>
      </g>
    </g>
    <g id="Group_1249" data-name="Group 1249" transform="translate(2.653 9.623)">
      <g id="Group_1248" data-name="Group 1248" transform="translate(0 0)">
        <path id="Path_1036" data-name="Path 1036" class="cls-1" d="M74.585,232.543a.625.625,0,0,0-.625.625v9.953h-5v-5.433a3.127,3.127,0,0,0-6.253,0v5.433h-5v-9.953a.625.625,0,0,0-1.251,0v10.578a.625.625,0,0,0,.625.625H63.33a.625.625,0,0,0,.623-.577.474.474,0,0,0,0-.049v-6.058a1.876,1.876,0,0,1,3.752,0v6.058a.459.459,0,0,0,0,.048.625.625,0,0,0,.623.577h6.253a.625.625,0,0,0,.625-.625V233.168A.625.625,0,0,0,74.585,232.543Z" transform="translate(-56.452 -232.543)"/>
      </g>
    </g>
  </g>
</svg>
