<svg id="skull" xmlns="http://www.w3.org/2000/svg" viewBox="0 0 31.586 35.938">
  <defs>
    <style>
      .cls-1 {
        fill: #2699fb;
      }
    </style>
  </defs>
  <path id="Path_384" data-name="Path 384" class="cls-1" d="M15.793,0A15.783,15.783,0,0,0,8.169,29.607l-2.3,6.33H25.719l-2.3-6.33A15.783,15.783,0,0,0,15.793,0Zm5.865,28.145-.864.411,1.919,5.276H18.951V31.586H16.846v2.246H14.74V31.586H12.634v2.246H8.873l1.919-5.276-.864-.411a13.681,13.681,0,0,1,9.7-25.492L15.9,5.444,19.756,7.37,17.428,8.534l.942,1.883L24.464,7.37,19.893,5.084l2.033-1.525a13.673,13.673,0,0,1-.269,24.585Zm0,0"/>
  <path id="Path_385" data-name="Path 385" class="cls-1" d="M184.395,356.636l1.489,1.489,1.361-1.361,1.361,1.361,1.489-1.489-2.85-2.85Zm0,0" transform="translate(-171.452 -328.953)"/>
  <path id="Path_386" data-name="Path 386" class="cls-1" d="M240,241.053a5.264,5.264,0,0,0,10.529,0V240H240Zm8.242,1.053a3.159,3.159,0,0,1-5.956,0Zm0,0" transform="translate(-223.154 -223.154)"/>
  <path id="Path_387" data-name="Path 387" class="cls-1" d="M70.529,241.053V240H60v1.053a5.264,5.264,0,0,0,10.529,0Zm-5.264,3.159a3.165,3.165,0,0,1-2.978-2.107h5.956A3.165,3.165,0,0,1,65.264,244.211Zm0,0" transform="translate(-55.789 -223.154)"/>
</svg>
