<svg id="language" xmlns="http://www.w3.org/2000/svg" viewBox="0 0 17 17">
  <defs>
    <style>
      .cls-1 {
        fill: #fff;
      }
    </style>
  </defs>
  <path id="Path_165" data-name="Path 165" class="cls-1" d="M11.322,15.008,13.979,17V15.008H17v-9H10.99V0H0V9H3.021V10.99L5.678,9H6.01v6.01Zm4.682-1H12.982v1l-1.328-1H7.006V7.006h9ZM5.346,8,4.018,9V8H1V1h9V6.01H7.812l-2.3-4.6L3.074,6.285l.891.446.609-1.219H6.449l.249.5H6.01V8Zm.605-3.486H5.072l.439-.879Zm0,0"/>
  <path id="Path_166" data-name="Path 166" class="cls-1" d="M272.792,244.3a2.579,2.579,0,0,1-1.294.684v1a3.522,3.522,0,0,0,1.992-.967,3.522,3.522,0,0,0,1.992.967v-1a2.579,2.579,0,0,1-1.294-.684,3.643,3.643,0,0,0,.726-1.308h1.065v-1h-1.992v-1h-1v1H271v1h1.065A3.643,3.643,0,0,0,272.792,244.3Zm.7-.72a3.073,3.073,0,0,1-.368-.589h.735A3.071,3.071,0,0,1,273.49,243.58Zm0,0" transform="translate(-262.002 -232.998)"/>
</svg>
