<svg xmlns="http://www.w3.org/2000/svg" xmlns:xlink="http://www.w3.org/1999/xlink" viewBox="0 0 38.893 39.492">
  <defs>
    <style>
      .cls-1 {
        fill: #f11d72;
      }

      .cls-2 {
        filter: url(#Path_1076);
      }
    </style>
    <filter id="Path_1076" x="0" y="0" width="38.893" height="39.492" filterUnits="userSpaceOnUse">
      <feOffset input="SourceAlpha"/>
      <feGaussianBlur stdDeviation="3" result="blur"/>
      <feFlood flood-color="#f11d72"/>
      <feComposite operator="in" in2="blur"/>
      <feComposite in="SourceGraphic"/>
    </filter>
  </defs>
  <g id="like" transform="translate(9 9)">
    <g class="cls-2" transform="matrix(1, 0, 0, 1, -9, -9)">
      <path id="Path_1076-2" data-name="Path 1076" class="cls-1" d="M26.94,14.611a2.67,2.67,0,0,0,.625-1.784,2.741,2.741,0,0,0-.584-1.546,2.4,2.4,0,0,0-.571-2.764A4.963,4.963,0,0,0,22.8,7.654a14.1,14.1,0,0,0-2.211.283h0c-.225.04-.463.09-.706.144a7.841,7.841,0,0,1,.562-2.611c.629-1.915.593-3.38-.117-4.36A2.857,2.857,0,0,0,18.037,0a1.129,1.129,0,0,0-.867.4,3.024,3.024,0,0,0-.378,2.144C16.2,4.13,14.536,8.032,13.129,9.115a.481.481,0,0,0-.072.063,4.828,4.828,0,0,0-.881,1.321,1.855,1.855,0,0,0-.89-.225H8.545a1.871,1.871,0,0,0-1.87,1.87v7.3a1.871,1.871,0,0,0,1.87,1.87h2.742a1.866,1.866,0,0,0,1.079-.342l1.056.126a45.251,45.251,0,0,0,5.991.328c.535.04,1.038.063,1.506.063a10.084,10.084,0,0,0,2.09-.189A3.908,3.908,0,0,0,25.8,19.569a2.751,2.751,0,0,0,.306-1.721,2.867,2.867,0,0,0,1.02-2.333A3.036,3.036,0,0,0,26.94,14.611ZM8.545,20.1a.657.657,0,0,1-.656-.656V12.139a.657.657,0,0,1,.656-.656h2.742a.657.657,0,0,1,.656.656v7.3a.657.657,0,0,1-.656.656H8.545ZM25.79,14.086a.6.6,0,0,0-.081.733,1.87,1.87,0,0,1,.207.751,1.8,1.8,0,0,1-.845,1.555.612.612,0,0,0-.207.692,1.587,1.587,0,0,1-.121,1.16,2.811,2.811,0,0,1-1.987,1.142,11.84,11.84,0,0,1-3.276.1h-.063a44.363,44.363,0,0,1-5.843-.319h0l-.454-.054a1.9,1.9,0,0,0,.04-.4V12.139a1.9,1.9,0,0,0-.085-.557,3.756,3.756,0,0,1,.836-1.542c2.018-1.6,3.991-7,4.076-7.232a.569.569,0,0,0,.027-.3,2.809,2.809,0,0,1,.058-1.3,1.612,1.612,0,0,1,1.267.607c.458.634.44,1.766-.054,3.267-.755,2.288-.818,3.492-.22,4.023a.98.98,0,0,0,.98.175c.274-.063.535-.117.782-.157l.058-.013c1.38-.3,3.852-.485,4.71.3a1.293,1.293,0,0,1,.153,1.64.6.6,0,0,0,.108.782,1.7,1.7,0,0,1,.5,1.047A1.669,1.669,0,0,1,25.79,14.086Z" transform="translate(2.33 9)"/>
    </g>
  </g>
</svg>
