<svg xmlns="http://www.w3.org/2000/svg" viewBox="0 0 68.394 65.372">
  <defs>
    <style>
      .cls-1 {
        fill: #fff;
      }
    </style>
  </defs>
  <g id="Group_1585" data-name="Group 1585" transform="translate(-7.025)">
    <g id="Group_729" data-name="Group 729" transform="translate(7.025 0)">
      <path id="Path_431" data-name="Path 431" class="cls-1" d="M-824.619-1574.769a36.96,36.96,0,0,0-1.591-8.589c-1.749-5.248-12.406-10.02-13.679-10.5a1.757,1.757,0,0,0-1.273,0,1.008,1.008,0,0,0-.8.954c-.8,2.386-3.022,4.3-4.772,5.567a6.925,6.925,0,0,1-8.112,0c-1.749-1.272-3.977-3.181-4.772-5.567a1.631,1.631,0,0,0-.8-.954,1.757,1.757,0,0,0-1.273,0c-1.273.478-11.771,5.25-13.679,10.5a36.959,36.959,0,0,0-1.591,8.589,9.424,9.424,0,0,0-7.952,9.385,1.5,1.5,0,0,0,1.59,1.59,1.5,1.5,0,0,0,1.591-1.59,6.38,6.38,0,0,1,6.362-6.362,6.486,6.486,0,0,1,6.2,4.772h-6.2a1.5,1.5,0,0,0-1.591,1.59,1.5,1.5,0,0,0,1.591,1.59h49.307a1.5,1.5,0,0,0,1.591-1.59,1.5,1.5,0,0,0-1.591-1.59h-6.2a6.345,6.345,0,0,1,6.2-4.772,6.38,6.38,0,0,1,6.362,6.362,1.5,1.5,0,0,0,1.591,1.59,1.5,1.5,0,0,0,1.591-1.59A9.73,9.73,0,0,0-824.619-1574.769Zm-10.975,7.795h-30.539a9.458,9.458,0,0,0-7.794-7.795,36.191,36.191,0,0,1,1.432-7.635c.954-2.7,6.362-6.044,10.339-7.952a17.728,17.728,0,0,0,5.249,5.566,10.571,10.571,0,0,0,11.77,0,17.734,17.734,0,0,0,5.249-5.566c3.976,1.908,9.543,5.248,10.338,7.952a34.528,34.528,0,0,1,1.431,7.635A9.49,9.49,0,0,0-835.594-1566.975Z" transform="translate(884.9 1629.166)"/>
      <path id="Path_432" data-name="Path 432" class="cls-1" d="M-859.334-1607.82a9.571,9.571,0,0,1,9.543,9.543,9.719,9.719,0,0,1-1.272,4.772,1.608,1.608,0,0,0,.636,2.227,1.609,1.609,0,0,0,2.226-.635,12.749,12.749,0,0,0,1.75-6.363A12.761,12.761,0,0,0-859.176-1611a12.762,12.762,0,0,0-12.725,12.724c0,6.522,4.772,15.428,13.679,18.928.159,0,.318.159.636.159a1.391,1.391,0,0,0,1.432-.954,1.53,1.53,0,0,0-.955-2.068c-7.316-2.863-11.769-10.5-11.769-16.064A9.57,9.57,0,0,1-859.334-1607.82Z" transform="translate(892.577 1619.112)"/>
      <path id="Path_433" data-name="Path 433" class="cls-1" d="M-871.158-1587.312a1.5,1.5,0,0,0,1.591-1.591,1.5,1.5,0,0,0-1.591-1.59,4.688,4.688,0,0,1-4.772-4.773,4.944,4.944,0,0,1,4.294-4.772,1.622,1.622,0,0,0,1.272.8,1.5,1.5,0,0,0,1.591-1.59c0-6.521,6.362-11.93,14.315-11.93s14.316,5.409,14.316,11.93a1.5,1.5,0,0,0,1.59,1.59,1.444,1.444,0,0,0,1.113-.477,4.729,4.729,0,0,1,2.863,4.453,4.688,4.688,0,0,1-4.772,4.773,1.548,1.548,0,0,0-1.59,1.271,4.668,4.668,0,0,1-2.227,3.022c-1.591.8-3.818.478-6.522-.954a1.676,1.676,0,0,0-2.068.636,1.674,1.674,0,0,0,.637,2.067,14.165,14.165,0,0,0,6.2,1.75,8.55,8.55,0,0,0,3.34-.8,7.43,7.43,0,0,0,3.658-4.136,8.016,8.016,0,0,0,6.839-7.793,7.874,7.874,0,0,0-5.726-7.635c-1.113-7.315-8.43-13.042-17.337-13.042-8.748,0-15.905,5.567-17.337,12.724a7.862,7.862,0,0,0-7.317,7.953A7.478,7.478,0,0,0-871.158-1587.312Z" transform="translate(888.495 1616.101)"/>
    </g>
  </g>
</svg>
