<svg id="ring" xmlns="http://www.w3.org/2000/svg" viewBox="0 0 21.064 21.064">
  <defs>
    <style>
      .cls-1 {
        fill: #fff;
      }
    </style>
  </defs>
  <g id="Group_1213" data-name="Group 1213" transform="translate(0)">
    <path id="Path_1032" data-name="Path 1032" class="cls-1" d="M20.754,15.054c-2.478-2.478-2.85-3.722-2.85-7.681a7.371,7.371,0,1,0-14.742,0,12.455,12.455,0,0,1-.351,3.91,9.033,9.033,0,0,1-2.5,3.771,1.053,1.053,0,0,0,.745,1.8H6.9l-.053.527a3.686,3.686,0,1,0,7.371,0l-.053-.527h5.845A1.053,1.053,0,0,0,20.754,15.054ZM10.533,20.011A2.633,2.633,0,0,1,7.9,17.378l.053-.527h5.159l.054.527A2.633,2.633,0,0,1,10.533,20.011ZM1.055,15.8c3.159-3.16,3.159-5.266,3.159-8.426a6.318,6.318,0,1,1,12.636,0c0,3.16,0,5.266,3.159,8.426Z" transform="translate(0)"/>
  </g>
</svg>
