<svg xmlns="http://www.w3.org/2000/svg" xmlns:xlink="http://www.w3.org/1999/xlink" viewBox="0 0 71.386 75.301">
  <defs>
    <style>
      .cls-1, .cls-2, .cls-6 {
        fill: none;
      }

      .cls-1, .cls-2 {
        stroke: #fff;
      }

      .cls-1 {
        stroke-width: 4px;
      }

      .cls-2 {
        stroke-width: 3px;
      }

      .cls-3 {
        clip-path: url(#clip-path);
      }

      .cls-4 {
        fill: #fff;
      }

      .cls-5 {
        stroke: none;
      }
    </style>
    <clipPath id="clip-path">
      <ellipse id="Ellipse_126" data-name="Ellipse 126" class="cls-1" cx="35.693" cy="35.693" rx="35.693" ry="35.693"/>
    </clipPath>
  </defs>
  <g id="Group_1576" data-name="Group 1576" transform="translate(-9591 -2258.012)">
    <g id="Ellipse_125" data-name="Ellipse 125" class="cls-2" transform="translate(9591.086 2262.098)">
      <ellipse class="cls-5" cx="35.607" cy="35.607" rx="35.607" ry="35.607"/>
      <ellipse class="cls-6" cx="35.607" cy="35.607" rx="34.107" ry="34.107"/>
    </g>
    <g id="Group_1575" data-name="Group 1575" transform="translate(-12.086 36.914)">
      <g id="Mask_Group_22" data-name="Mask Group 22" class="cls-3" transform="translate(9603.086 2221.098)">
        <path id="Path_431" data-name="Path 431" class="cls-4" d="M-834.56-1577.937a30.859,30.859,0,0,0-1.328-7.173c-1.461-4.383-10.361-8.368-11.423-8.767a1.467,1.467,0,0,0-1.063,0,.843.843,0,0,0-.664.8c-.664,1.992-2.524,3.586-3.985,4.648a5.782,5.782,0,0,1-6.774,0c-1.461-1.062-3.321-2.656-3.985-4.648a1.362,1.362,0,0,0-.664-.8,1.467,1.467,0,0,0-1.063,0c-1.062.4-9.829,4.384-11.423,8.767a30.866,30.866,0,0,0-1.328,7.173,7.869,7.869,0,0,0-6.641,7.837,1.255,1.255,0,0,0,1.328,1.328,1.255,1.255,0,0,0,1.328-1.328,5.328,5.328,0,0,1,5.313-5.312,5.417,5.417,0,0,1,5.18,3.984h-5.18a1.255,1.255,0,0,0-1.328,1.328,1.256,1.256,0,0,0,1.328,1.328h41.176a1.255,1.255,0,0,0,1.328-1.328,1.254,1.254,0,0,0-1.328-1.328h-5.18a5.3,5.3,0,0,1,5.18-3.984,5.328,5.328,0,0,1,5.313,5.312,1.255,1.255,0,0,0,1.328,1.328,1.255,1.255,0,0,0,1.329-1.328A8.125,8.125,0,0,0-834.56-1577.937Zm-9.165,6.509h-25.5a7.9,7.9,0,0,0-6.508-6.509,30.231,30.231,0,0,1,1.2-6.377c.8-2.258,5.313-5.047,8.634-6.64a14.811,14.811,0,0,0,4.383,4.648,8.83,8.83,0,0,0,9.829,0,14.815,14.815,0,0,0,4.383-4.648c3.321,1.593,7.969,4.383,8.634,6.64a28.822,28.822,0,0,1,1.2,6.377A7.925,7.925,0,0,0-843.724-1571.428Z" transform="translate(891.929 1640.963)"/>
      </g>
      <path id="Path_432" data-name="Path 432" class="cls-4" d="M-861.407-1608.344a7.992,7.992,0,0,1,7.969,7.969,8.119,8.119,0,0,1-1.062,3.985,1.343,1.343,0,0,0,.531,1.859,1.344,1.344,0,0,0,1.859-.531,10.648,10.648,0,0,0,1.461-5.314A10.657,10.657,0,0,0-861.274-1611a10.657,10.657,0,0,0-10.627,10.625c0,5.446,3.985,12.884,11.423,15.807.133,0,.266.133.531.133a1.163,1.163,0,0,0,1.2-.8,1.279,1.279,0,0,0-.8-1.728c-6.11-2.39-9.828-8.766-9.828-13.415A7.992,7.992,0,0,1-861.407-1608.344Z" transform="translate(10499.282 3856.471)"/>
      <path id="Path_433" data-name="Path 433" class="cls-4" d="M-872.42-1592.058a1.255,1.255,0,0,0,1.328-1.329,1.254,1.254,0,0,0-1.328-1.327,3.915,3.915,0,0,1-3.985-3.986,4.129,4.129,0,0,1,3.586-3.985,1.354,1.354,0,0,0,1.063.665,1.255,1.255,0,0,0,1.328-1.328c0-5.446,5.313-9.963,11.955-9.963s11.954,4.517,11.954,9.963a1.255,1.255,0,0,0,1.329,1.328,1.206,1.206,0,0,0,.929-.4,3.949,3.949,0,0,1,2.391,3.719,3.914,3.914,0,0,1-3.984,3.986,1.293,1.293,0,0,0-1.328,1.062,3.9,3.9,0,0,1-1.86,2.524c-1.329.664-3.188.4-5.446-.8a1.4,1.4,0,0,0-1.727.531,1.4,1.4,0,0,0,.532,1.726,11.831,11.831,0,0,0,5.181,1.461,7.131,7.131,0,0,0,2.789-.664,6.2,6.2,0,0,0,3.055-3.454,6.693,6.693,0,0,0,5.712-6.508,6.576,6.576,0,0,0-4.782-6.376c-.93-6.109-7.04-10.891-14.479-10.891-7.305,0-13.283,4.648-14.478,10.626a6.565,6.565,0,0,0-6.11,6.641A6.245,6.245,0,0,0-872.42-1592.058Z" transform="translate(10497.013 3854.797)"/>
    </g>
  </g>
</svg>
