<svg xmlns="http://www.w3.org/2000/svg" xmlns:xlink="http://www.w3.org/1999/xlink" viewBox="0 0 45.709 44.75">
  <defs>
    <style>
      .cls-1 {
        fill: #f11d72;
      }

      .cls-2 {
        filter: url(#Path_433);
      }

      .cls-3 {
        filter: url(#Path_432);
      }

      .cls-4 {
        filter: url(#Path_431);
      }
    </style>
    <filter id="Path_431" x="0" y="11.17" width="45.709" height="33.58" filterUnits="userSpaceOnUse">
      <feOffset input="SourceAlpha"/>
      <feGaussianBlur stdDeviation="4" result="blur"/>
      <feFlood flood-color="#f11d72"/>
      <feComposite operator="in" in2="blur"/>
      <feComposite in="SourceGraphic"/>
    </filter>
    <filter id="Path_432" x="6.563" y="2.575" width="32.078" height="34.097" filterUnits="userSpaceOnUse">
      <feOffset input="SourceAlpha"/>
      <feGaussianBlur stdDeviation="4" result="blur-2"/>
      <feFlood flood-color="#f11d72"/>
      <feComposite operator="in" in2="blur-2"/>
      <feComposite in="SourceGraphic"/>
    </filter>
    <filter id="Path_433" x="3.074" y="0" width="39.152" height="34.602" filterUnits="userSpaceOnUse">
      <feOffset input="SourceAlpha"/>
      <feGaussianBlur stdDeviation="4" result="blur-3"/>
      <feFlood flood-color="#f11d72"/>
      <feComposite operator="in" in2="blur-3"/>
      <feComposite in="SourceGraphic"/>
    </filter>
  </defs>
  <g id="Group_729" data-name="Group 729" transform="translate(12 12)">
    <g class="cls-4" transform="matrix(1, 0, 0, 1, -12, -12)">
      <path id="Path_431-2" data-name="Path 431" class="cls-1" d="M-865.766-1587.879a11.733,11.733,0,0,0-.5-2.726c-.555-1.666-3.938-3.181-4.342-3.332a.558.558,0,0,0-.4,0,.32.32,0,0,0-.252.3,4.009,4.009,0,0,1-1.515,1.767,2.2,2.2,0,0,1-2.575,0,4.008,4.008,0,0,1-1.515-1.767.518.518,0,0,0-.252-.3.558.558,0,0,0-.4,0c-.4.152-3.736,1.666-4.342,3.332a11.732,11.732,0,0,0-.505,2.726,2.991,2.991,0,0,0-2.524,2.979.477.477,0,0,0,.5.5.477.477,0,0,0,.5-.5,2.025,2.025,0,0,1,2.02-2.019,2.059,2.059,0,0,1,1.969,1.515h-1.969a.477.477,0,0,0-.505.5.477.477,0,0,0,.505.5h15.651a.477.477,0,0,0,.5-.5.477.477,0,0,0-.5-.5h-1.969a2.014,2.014,0,0,1,1.969-1.515,2.025,2.025,0,0,1,2.02,2.019.477.477,0,0,0,.5.5.477.477,0,0,0,.5-.5A3.088,3.088,0,0,0-865.766-1587.879Zm-3.484,2.474h-9.694a3,3,0,0,0-2.474-2.474,11.49,11.49,0,0,1,.454-2.424c.3-.858,2.019-1.918,3.282-2.524a5.629,5.629,0,0,0,1.666,1.767,3.356,3.356,0,0,0,3.736,0,5.63,5.63,0,0,0,1.666-1.767c1.262.606,3.029,1.666,3.282,2.524a10.964,10.964,0,0,1,.454,2.424A3.012,3.012,0,0,0-869.249-1585.4Z" transform="translate(896.9 1617.15)"/>
    </g>
    <g class="cls-3" transform="matrix(1, 0, 0, 1, -12, -12)">
      <path id="Path_432-2" data-name="Path 432" class="cls-1" d="M-867.911-1609.99a3.038,3.038,0,0,1,3.029,3.029,3.085,3.085,0,0,1-.4,1.515.511.511,0,0,0,.2.707.511.511,0,0,0,.707-.2,4.047,4.047,0,0,0,.555-2.02,4.051,4.051,0,0,0-4.039-4.039,4.051,4.051,0,0,0-4.039,4.039,6.911,6.911,0,0,0,4.342,6.008c.051,0,.1.051.2.051a.442.442,0,0,0,.454-.3.486.486,0,0,0-.3-.657,6.01,6.01,0,0,1-3.736-5.1A3.038,3.038,0,0,1-867.911-1609.99Z" transform="translate(890.46 1625.57)"/>
    </g>
    <g class="cls-2" transform="matrix(1, 0, 0, 1, -12, -12)">
      <path id="Path_433-2" data-name="Path 433" class="cls-1" d="M-876.383-1606.962a.477.477,0,0,0,.5-.5.477.477,0,0,0-.5-.5,1.488,1.488,0,0,1-1.515-1.515,1.569,1.569,0,0,1,1.363-1.515.515.515,0,0,0,.4.253.477.477,0,0,0,.5-.5c0-2.07,2.019-3.787,4.544-3.787s4.544,1.717,4.544,3.787a.477.477,0,0,0,.5.5.458.458,0,0,0,.353-.151,1.5,1.5,0,0,1,.909,1.414,1.488,1.488,0,0,1-1.515,1.515.492.492,0,0,0-.5.4,1.482,1.482,0,0,1-.707.959,2.319,2.319,0,0,1-2.07-.3.532.532,0,0,0-.656.2.531.531,0,0,0,.2.656,4.5,4.5,0,0,0,1.969.556,2.713,2.713,0,0,0,1.06-.252,2.358,2.358,0,0,0,1.161-1.313,2.544,2.544,0,0,0,2.171-2.474,2.5,2.5,0,0,0-1.818-2.423c-.353-2.322-2.676-4.14-5.5-4.14a5.434,5.434,0,0,0-5.5,4.039,2.5,2.5,0,0,0-2.322,2.524A2.374,2.374,0,0,0-876.383-1606.962Z" transform="translate(893.89 1628.1)"/>
    </g>
  </g>
</svg>
