<svg xmlns="http://www.w3.org/2000/svg" viewBox="0 0 41.936 45.431">
  <defs>
    <style>
      .cls-1 {
        fill: #ff4d58;
      }
    </style>
  </defs>
  <g id="power-button-off" transform="translate(-18.275)">
    <g id="Group_1614" data-name="Group 1614" transform="translate(18.275)">
      <path id="Path_1100" data-name="Path 1100" class="cls-1" d="M204.493,24.463a3.544,3.544,0,0,0,3.5-3.494V3.495a3.357,3.357,0,0,0-1.038-2.457,3.428,3.428,0,0,0-4.915,0A3.358,3.358,0,0,0,201,3.495V20.969a3.543,3.543,0,0,0,3.495,3.494Z" transform="translate(-183.525)"/>
      <path id="Path_1101" data-name="Path 1101" class="cls-1" d="M58.014,81.394a20.569,20.569,0,0,0-6.184-7.371,3.391,3.391,0,0,0-2.594-.683A3.237,3.237,0,0,0,46.943,74.7a3.324,3.324,0,0,0-.669,2.58,3.4,3.4,0,0,0,1.352,2.307,13.942,13.942,0,0,1,4.136,4.942,13.923,13.923,0,0,1,.355,11.645,13.845,13.845,0,0,1-7.454,7.453,13.826,13.826,0,0,1-10.839,0,13.841,13.841,0,0,1-7.454-7.453,13.92,13.92,0,0,1,.355-11.645,13.945,13.945,0,0,1,4.136-4.942,3.4,3.4,0,0,0,1.352-2.307,3.322,3.322,0,0,0-.669-2.58,3.227,3.227,0,0,0-2.28-1.365,3.452,3.452,0,0,0-2.608.683A20.843,20.843,0,0,0,19.94,98.895a20.714,20.714,0,0,0,11.167,11.166,20.695,20.695,0,0,0,16.272,0A20.709,20.709,0,0,0,58.546,98.895a20.4,20.4,0,0,0,1.665-8.136A20.653,20.653,0,0,0,58.014,81.394Z" transform="translate(-18.275 -66.296)"/>
    </g>
  </g>
</svg>
