<svg id="target" xmlns="http://www.w3.org/2000/svg" viewBox="0 0 35.938 35.938">
  <defs>
    <style>
      .cls-1 {
        fill: #2699fb;
      }
    </style>
  </defs>
  <g id="Group_356" data-name="Group 356" transform="translate(11.652 7.44)">
    <g id="Group_355" data-name="Group 355">
      <path id="Path_388" data-name="Path 388" class="cls-1" d="M166.7,106a.7.7,0,1,0,.7.7A.7.7,0,0,0,166.7,106Z" transform="translate(-166 -106)"/>
    </g>
  </g>
  <g id="Group_358" data-name="Group 358">
    <g id="Group_357" data-name="Group 357">
      <path id="Path_389" data-name="Path 389" class="cls-1" d="M35.236,17.267H32.9A15.126,15.126,0,0,0,18.671,3.035V.7a.7.7,0,1,0-1.4,0V3.035A15.126,15.126,0,0,0,3.035,17.267H.7a.7.7,0,1,0,0,1.4H3.035A15.126,15.126,0,0,0,17.267,32.9v2.333a.7.7,0,1,0,1.4,0V32.9A15.126,15.126,0,0,0,32.9,18.671h2.333a.7.7,0,1,0,0-1.4ZM17.267,31.5A13.761,13.761,0,0,1,4.441,18.671H6.058A11.949,11.949,0,0,0,17.267,29.88Zm.7-5.807a.7.7,0,0,0-.7.7v2.082a10.544,10.544,0,0,1-9.8-9.8H9.546a.7.7,0,1,0,0-1.4H7.464a10.455,10.455,0,0,1,3.043-6.719.7.7,0,1,0-1-.99,11.849,11.849,0,0,0-3.454,7.708H4.441A13.761,13.761,0,0,1,17.267,4.441V6.058a11.886,11.886,0,0,0-2.371.38.7.7,0,1,0,.362,1.356,10.484,10.484,0,0,1,2.009-.33V9.546a.7.7,0,1,0,1.4,0V7.464a10.544,10.544,0,0,1,9.8,9.8H26.392a.7.7,0,1,0,0,1.4h2.082a10.544,10.544,0,0,1-9.8,9.8V26.392A.7.7,0,0,0,17.969,25.69Zm.7,5.807V29.88A11.949,11.949,0,0,0,29.88,18.671H31.5A13.761,13.761,0,0,1,18.671,31.5ZM29.88,17.267A11.949,11.949,0,0,0,18.671,6.058V4.441A13.761,13.761,0,0,1,31.5,17.267Z"/>
    </g>
  </g>
  <g id="Group_360" data-name="Group 360" transform="translate(11.652 11.652)">
    <g id="Group_359" data-name="Group 359">
      <path id="Path_390" data-name="Path 390" class="cls-1" d="M177.932,171.615h-.753a4.923,4.923,0,0,0-4.16-4.16V166.7a.7.7,0,0,0-1.4,0v.753a4.923,4.923,0,0,0-4.16,4.16H166.7a.7.7,0,0,0,0,1.4h.753a4.923,4.923,0,0,0,4.16,4.16v.753a.7.7,0,0,0,1.4,0v-.753a4.923,4.923,0,0,0,4.16-4.16h.753a.7.7,0,0,0,0-1.4Zm-6.317,4.141a3.52,3.52,0,0,1-2.737-2.737h2.737Zm0-4.141h-2.737a3.52,3.52,0,0,1,2.737-2.737Zm1.4,4.141v-2.737h2.737A3.52,3.52,0,0,1,173.019,175.756Zm0-4.141v-2.737a3.52,3.52,0,0,1,2.737,2.737Z" transform="translate(-166 -166)"/>
    </g>
  </g>
</svg>
