<svg xmlns="http://www.w3.org/2000/svg" viewBox="0 0 35.824 21.858">
  <defs>
    <style>
      .cls-1 {
        fill: #fff;
      }
    </style>
  </defs>
  <g id="Group_733" data-name="Group 733" transform="translate(0 0)">
    <g id="Group_730" data-name="Group 730">
      <path id="Path_674" data-name="Path 674" class="cls-1" d="M-860.5-1217.259a2.46,2.46,0,0,1,2.457,2.457,2.406,2.406,0,0,1-.337,1.228.392.392,0,0,0,.152.555.392.392,0,0,0,.555-.151,3.31,3.31,0,0,0,.437-1.649,3.285,3.285,0,0,0-3.281-3.281,3.286,3.286,0,0,0-3.281,3.281,5.682,5.682,0,0,0,3.534,4.9.491.491,0,0,0,.151.034.425.425,0,0,0,.387-.253.409.409,0,0,0-.236-.538,4.854,4.854,0,0,1-3.029-4.14A2.5,2.5,0,0,1-860.5-1217.259Z" transform="translate(887.324 1220.12)"/>
      <path id="Path_675" data-name="Path 675" class="cls-1" d="M-878.83-1222.73a.409.409,0,0,0,.4-.4.409.409,0,0,0-.4-.4,1.235,1.235,0,0,1-1.228-1.228,1.223,1.223,0,0,1,1.094-1.212.387.387,0,0,0,.336.185.41.41,0,0,0,.4-.4c0-1.7,1.649-3.079,3.7-3.079s3.7,1.38,3.7,3.079a.41.41,0,0,0,.4.4.382.382,0,0,0,.269-.1,1.211,1.211,0,0,1,.757,1.127,1.235,1.235,0,0,1-1.228,1.228.4.4,0,0,0-.4.337,1.2,1.2,0,0,1-.589.774,1.937,1.937,0,0,1-1.7-.252.418.418,0,0,0-.555.185.417.417,0,0,0,.185.555,3.694,3.694,0,0,0,1.582.438,1.986,1.986,0,0,0,.841-.185,1.954,1.954,0,0,0,.926-1.043,2.064,2.064,0,0,0,1.75-2.036,2.059,2.059,0,0,0-1.481-1.969,4.351,4.351,0,0,0-4.476-3.365,4.366,4.366,0,0,0-4.459,3.3,2.054,2.054,0,0,0-1.9,2.036A2.072,2.072,0,0,0-878.83-1222.73Z" transform="translate(901.546 1230.1)"/>
      <path id="Path_676" data-name="Path 676" class="cls-1" d="M-968.5-1217.259a2.46,2.46,0,0,1,2.457,2.457,2.4,2.4,0,0,1-.337,1.228.392.392,0,0,0,.151.555.392.392,0,0,0,.555-.151,3.311,3.311,0,0,0,.438-1.649,3.285,3.285,0,0,0-3.281-3.281,3.286,3.286,0,0,0-3.281,3.281,5.682,5.682,0,0,0,3.534,4.9.49.49,0,0,0,.151.034.425.425,0,0,0,.387-.253.409.409,0,0,0-.235-.538,4.854,4.854,0,0,1-3.029-4.14A2.5,2.5,0,0,1-968.5-1217.259Z" transform="translate(977.151 1220.12)"/>
      <path id="Path_677" data-name="Path 677" class="cls-1" d="M-986.83-1222.73a.409.409,0,0,0,.4-.4.409.409,0,0,0-.4-.4,1.235,1.235,0,0,1-1.228-1.228,1.223,1.223,0,0,1,1.094-1.212.388.388,0,0,0,.337.185.41.41,0,0,0,.4-.4c0-1.7,1.649-3.079,3.7-3.079s3.7,1.38,3.7,3.079a.409.409,0,0,0,.4.4.382.382,0,0,0,.269-.1,1.211,1.211,0,0,1,.757,1.127,1.235,1.235,0,0,1-1.228,1.228.4.4,0,0,0-.4.337,1.2,1.2,0,0,1-.589.774,1.937,1.937,0,0,1-1.7-.252.418.418,0,0,0-.555.185.418.418,0,0,0,.185.555,3.694,3.694,0,0,0,1.582.438,1.986,1.986,0,0,0,.841-.185,1.953,1.953,0,0,0,.926-1.043,2.064,2.064,0,0,0,1.75-2.036,2.059,2.059,0,0,0-1.481-1.969,4.351,4.351,0,0,0-4.476-3.365,4.366,4.366,0,0,0-4.459,3.3,2.054,2.054,0,0,0-1.9,2.036A2.072,2.072,0,0,0-986.83-1222.73Z" transform="translate(991.374 1230.1)"/>
      <g id="Group_726" data-name="Group 726" transform="translate(0 8.998)">
        <path id="Path_678" data-name="Path 678" class="cls-1" d="M-991.249-1169c0-.051.017-.1.017-.135-.185-.051.1-.2.017-.387-.017-.034.017-.067,0-.1h-7.471a2.469,2.469,0,0,0-2-2.019,8.617,8.617,0,0,1,.37-1.969c.236-.69,1.649-1.548,2.692-2.053a4.467,4.467,0,0,0,1.363,1.43,2.689,2.689,0,0,0,3.029,0,4.469,4.469,0,0,0,1.363-1.43c.151.067.32.168.488.253a.89.89,0,0,1,.236-.808c-.387-.2-.69-.337-.774-.37a.394.394,0,0,0-.337,0,.409.409,0,0,0-.219.253,3.378,3.378,0,0,1-1.245,1.447,1.8,1.8,0,0,1-2.07,0,3.193,3.193,0,0,1-1.245-1.447.459.459,0,0,0-.219-.253.394.394,0,0,0-.336,0c-.32.135-3.062,1.346-3.517,2.709a9.519,9.519,0,0,0-.421,2.221,2.459,2.459,0,0,0-2.07,2.423.409.409,0,0,0,.4.4.409.409,0,0,0,.4-.4,1.652,1.652,0,0,1,1.649-1.649,1.641,1.641,0,0,1,1.582,1.229h-1.582a.409.409,0,0,0-.4.4.41.41,0,0,0,.4.4h9.877A.333.333,0,0,0-991.249-1169Z" transform="translate(1003.6 1176.625)"/>
      </g>
      <g id="Group_727" data-name="Group 727" transform="translate(21.033 9.015)">
        <path id="Path_679" data-name="Path 679" class="cls-1" d="M-878.482-1152.379c.017-.135.034-.269.067-.421a1.862,1.862,0,0,1-.185.168A.879.879,0,0,1-878.482-1152.379Z" transform="translate(878.6 1156.792)"/>
        <path id="Path_680" data-name="Path 680" class="cls-1" d="M-856.53-1171.557a8.828,8.828,0,0,0-.421-2.221c-.454-1.363-3.2-2.574-3.517-2.709a.392.392,0,0,0-.337,0,.408.408,0,0,0-.219.252,3.378,3.378,0,0,1-1.245,1.447,1.8,1.8,0,0,1-2.07,0,3.2,3.2,0,0,1-1.245-1.447.459.459,0,0,0-.219-.252.392.392,0,0,0-.336,0c-.118.05-.656.286-1.262.622h0l.05.151v.017c0,.017.017.033.017.05a.686.686,0,0,1,.084.3,1.015,1.015,0,0,1,0,.32,10.547,10.547,0,0,1,1.043-.555,4.466,4.466,0,0,0,1.363,1.43,2.688,2.688,0,0,0,3.029,0,4.465,4.465,0,0,0,1.363-1.43c1.043.5,2.457,1.363,2.692,2.053a8.457,8.457,0,0,1,.37,1.969,2.489,2.489,0,0,0-2,2.019h-7.353a1.171,1.171,0,0,1-.1.32c.135.168.252.336.387.505h9.507a.409.409,0,0,0,.4-.4.409.409,0,0,0-.4-.4h-1.582a1.641,1.641,0,0,1,1.582-1.229,1.652,1.652,0,0,1,1.649,1.649.41.41,0,0,0,.4.4.41.41,0,0,0,.4-.4A2.427,2.427,0,0,0-856.53-1171.557Z" transform="translate(869.285 1176.525)"/>
      </g>
      <g id="Group_728" data-name="Group 728" transform="translate(9.086 5.048)">
        <path id="Path_681" data-name="Path 681" class="cls-1" d="M-933.985-1141.557a8.84,8.84,0,0,0-.421-2.221c-.454-1.363-3.2-2.574-3.517-2.709a.392.392,0,0,0-.337,0,.41.41,0,0,0-.219.252,3.379,3.379,0,0,1-1.245,1.447,1.8,1.8,0,0,1-2.07,0,3.191,3.191,0,0,1-1.245-1.447.46.46,0,0,0-.219-.252.392.392,0,0,0-.336,0c-.32.135-3.063,1.346-3.517,2.709a9.512,9.512,0,0,0-.421,2.221,2.46,2.46,0,0,0-2.07,2.423.409.409,0,0,0,.4.4.409.409,0,0,0,.4-.4,1.652,1.652,0,0,1,1.649-1.649,1.641,1.641,0,0,1,1.582,1.229h-1.582a.409.409,0,0,0-.4.4.409.409,0,0,0,.4.4h12.721a.409.409,0,0,0,.4-.4.409.409,0,0,0-.4-.4H-936a1.641,1.641,0,0,1,1.582-1.229,1.652,1.652,0,0,1,1.649,1.649.409.409,0,0,0,.4.4.409.409,0,0,0,.4-.4A2.389,2.389,0,0,0-933.985-1141.557Zm-2.827,2.019h-7.875a2.468,2.468,0,0,0-2-2.019,8.619,8.619,0,0,1,.37-1.969c.236-.69,1.649-1.548,2.692-2.053a4.465,4.465,0,0,0,1.363,1.43,2.69,2.69,0,0,0,3.029,0,4.466,4.466,0,0,0,1.363-1.43c1.043.5,2.457,1.363,2.692,2.053a8.465,8.465,0,0,1,.37,1.969A2.468,2.468,0,0,0-936.812-1139.538Z" transform="translate(949.6 1155.54)"/>
        <path id="Path_682" data-name="Path 682" class="cls-1" d="M-914.5-1187.259a2.46,2.46,0,0,1,2.457,2.457,2.407,2.407,0,0,1-.336,1.229.392.392,0,0,0,.151.555.392.392,0,0,0,.555-.151,3.311,3.311,0,0,0,.437-1.649,3.285,3.285,0,0,0-3.281-3.281,3.285,3.285,0,0,0-3.281,3.281,5.683,5.683,0,0,0,3.534,4.9.493.493,0,0,0,.151.033.425.425,0,0,0,.387-.253.409.409,0,0,0-.235-.538,4.854,4.854,0,0,1-3.029-4.14A2.5,2.5,0,0,1-914.5-1187.259Z" transform="translate(923.151 1190.119)"/>
        <path id="Path_683" data-name="Path 683" class="cls-1" d="M-932.83-1192.73a.409.409,0,0,0,.4-.4.41.41,0,0,0-.4-.4,1.235,1.235,0,0,1-1.228-1.228,1.222,1.222,0,0,1,1.094-1.212.388.388,0,0,0,.336.185.409.409,0,0,0,.4-.4c0-1.7,1.649-3.079,3.7-3.079s3.7,1.38,3.7,3.079a.409.409,0,0,0,.4.4.382.382,0,0,0,.269-.1,1.211,1.211,0,0,1,.757,1.127,1.235,1.235,0,0,1-1.228,1.228.4.4,0,0,0-.4.337,1.2,1.2,0,0,1-.589.774,1.937,1.937,0,0,1-1.7-.253.418.418,0,0,0-.555.185.417.417,0,0,0,.185.555,3.692,3.692,0,0,0,1.582.437,1.989,1.989,0,0,0,.841-.185,1.953,1.953,0,0,0,.925-1.043,2.064,2.064,0,0,0,1.75-2.036,2.06,2.06,0,0,0-1.481-1.969,4.351,4.351,0,0,0-4.476-3.365,4.365,4.365,0,0,0-4.459,3.3,2.053,2.053,0,0,0-1.9,2.036A2.072,2.072,0,0,0-932.83-1192.73Z" transform="translate(937.373 1200.1)"/>
      </g>
    </g>
  </g>
</svg>
