<svg xmlns="http://www.w3.org/2000/svg" viewBox="0 0 37.417 29.634">
  <defs>
    <style>
      .cls-1 {
        fill: #2699fb;
      }
    </style>
  </defs>
  <g id="three-stars" transform="translate(0 0)">
    <g id="Group_362" data-name="Group 362" transform="translate(10.088)">
      <g id="Group_361" data-name="Group 361">
        <path id="Path_391" data-name="Path 391" class="cls-1" d="M154.181,59.072a1.05,1.05,0,0,0-.839-.707l-4.691-.685-2.1-4.249a1.043,1.043,0,0,0-1.87,0l-2.1,4.249-4.691.685a1.05,1.05,0,0,0-.839.707,1.033,1.033,0,0,0,.265,1.068l3.395,3.306-.8,4.676a1.041,1.041,0,0,0,1.51,1.1l4.2-2.209,4.2,2.209a1.164,1.164,0,0,0,1.1-.081,1.028,1.028,0,0,0,.412-1.016l-.8-4.676,3.395-3.306A1.059,1.059,0,0,0,154.181,59.072Zm-5.486,3.27a1.061,1.061,0,0,0-.3.92l.538,3.137-2.82-1.48a1.018,1.018,0,0,0-.965,0l-2.813,1.48.538-3.137a1.027,1.027,0,0,0-.3-.92l-2.275-2.224,3.152-.457a1.044,1.044,0,0,0,.781-.567l1.406-2.85,1.407,2.85a1.022,1.022,0,0,0,.781.567l3.152.457Z" transform="translate(-137 -52.85)"/>
      </g>
    </g>
    <g id="Group_364" data-name="Group 364" transform="translate(20.184 13.144)">
      <g id="Group_363" data-name="Group 363">
        <path id="Path_392" data-name="Path 392" class="cls-1" d="M291.281,237.572a1.05,1.05,0,0,0-.839-.707l-4.691-.685-2.1-4.249a1.043,1.043,0,0,0-1.87,0l-2.1,4.249-4.691.685a1.05,1.05,0,0,0-.839.707,1.032,1.032,0,0,0,.265,1.068l3.395,3.306-.8,4.676a1.041,1.041,0,0,0,1.51,1.1l4.2-2.209,4.2,2.209a1.163,1.163,0,0,0,1.1-.081,1.028,1.028,0,0,0,.412-1.016l-.8-4.676,3.395-3.306A1.033,1.033,0,0,0,291.281,237.572Zm-5.5,3.262a1.061,1.061,0,0,0-.3.92l.538,3.137-2.813-1.48a1.018,1.018,0,0,0-.965,0l-2.813,1.48.538-3.137a1.027,1.027,0,0,0-.3-.92l-2.275-2.216,3.152-.457a1.044,1.044,0,0,0,.781-.567l1.407-2.85,1.406,2.85a1.022,1.022,0,0,0,.781.567l3.152.457Z" transform="translate(-274.1 -231.35)"/>
      </g>
    </g>
    <g id="Group_366" data-name="Group 366" transform="translate(0 13.144)">
      <g id="Group_365" data-name="Group 365">
        <path id="Path_393" data-name="Path 393" class="cls-1" d="M17.181,237.572a1.038,1.038,0,0,0-.839-.707l-4.691-.685-2.1-4.249a1.043,1.043,0,0,0-1.87,0l-2.1,4.249-4.691.685a1.05,1.05,0,0,0-.839.707,1.033,1.033,0,0,0,.265,1.068l3.395,3.306-.8,4.676a1.041,1.041,0,0,0,1.51,1.1l4.2-2.209,4.2,2.209a1.163,1.163,0,0,0,1.1-.081,1.028,1.028,0,0,0,.412-1.016l-.8-4.676,3.395-3.306A1.059,1.059,0,0,0,17.181,237.572Zm-5.5,3.262a1.061,1.061,0,0,0-.3.92l.538,3.137L9.1,243.412a1.018,1.018,0,0,0-.965,0l-2.813,1.48.538-3.137a1.027,1.027,0,0,0-.3-.92l-2.283-2.216,3.152-.457a1.044,1.044,0,0,0,.781-.567l1.406-2.85,1.406,2.85a1.022,1.022,0,0,0,.781.567l3.152.457Z" transform="translate(0 -231.35)"/>
      </g>
    </g>
  </g>
</svg>
