<svg xmlns="http://www.w3.org/2000/svg" viewBox="0 0 15.797 10.069">
  <defs>
    <style>
      .cls-1 {
        fill: #f11d72;
      }
    </style>
  </defs>
  <g id="view" transform="translate(0 0)">
    <g id="Group_232" data-name="Group 232">
      <g id="Group_231" data-name="Group 231" transform="translate(0 0)">
        <path id="Path_204" data-name="Path 204" class="cls-1" d="M15.7,97.562c-.141-.193-3.5-4.727-7.8-4.727S.241,97.369.1,97.562a.521.521,0,0,0,0,.615c.141.193,3.5,4.727,7.8,4.727s7.657-4.534,7.8-4.727A.521.521,0,0,0,15.7,97.562Zm-7.8,4.3c-3.163,0-5.9-3.009-6.714-3.993.81-.985,3.544-3.992,6.714-3.992s5.9,3.009,6.714,3.993C13.8,98.854,11.069,101.862,7.9,101.862Z" transform="translate(0 -92.835)"/>
      </g>
    </g>
    <g id="Group_234" data-name="Group 234" transform="translate(4.774 1.91)">
      <g id="Group_233" data-name="Group 233" transform="translate(0 0)">
        <path id="Path_205" data-name="Path 205" class="cls-1" d="M157.847,154.725a3.125,3.125,0,1,0,3.125,3.125A3.128,3.128,0,0,0,157.847,154.725Zm0,5.208a2.083,2.083,0,1,1,2.083-2.083A2.085,2.085,0,0,1,157.847,159.933Z" transform="translate(-154.722 -154.725)"/>
      </g>
    </g>
  </g>
</svg>
