<svg xmlns="http://www.w3.org/2000/svg" viewBox="0 0 479.396 512">
  <defs>
    <style>
      .cls-1 {
        fill: #2699fb;
      }
    </style>
  </defs>
  <g id="visibility" transform="translate(-16.303)">
    <g id="Group_1603" data-name="Group 1603">
      <g id="Group_1602" data-name="Group 1602">
        <path id="Path_1099" data-name="Path 1099" class="cls-1" d="M487.464,232.092A12.217,12.217,0,1,0,468.2,247.119a14.425,14.425,0,0,1,0,17.763A268.327,268.327,0,0,1,356.117,349.4a136.7,136.7,0,0,0,.312-186.478,268.1,268.1,0,0,1,69.966,41.37c2.627,2.153,5.246,4.386,7.79,6.638a12.217,12.217,0,0,0,16.2-18.293c-2.773-2.457-5.632-4.892-8.5-7.239A293.9,293.9,0,0,0,256,119C164.957,119,80.592,160.22,24.537,232.093a38.828,38.828,0,0,0,0,47.818C80.592,351.784,164.957,393.005,256,393.005s175.407-41.221,231.464-113.094A38.83,38.83,0,0,0,487.464,232.092ZM43.8,264.882a14.425,14.425,0,0,1,0-17.763,268.32,268.32,0,0,1,112.057-84.5,136.712,136.712,0,0,0,0,186.771A268.316,268.316,0,0,1,43.8,264.882ZM256.149,368.567h-.3a112.567,112.567,0,0,1,0-225.134h.262a112.567,112.567,0,0,1,.034,225.134Z"/>
      </g>
    </g>
    <g id="Group_1605" data-name="Group 1605">
      <g id="Group_1604" data-name="Group 1604">
        <path id="Path_1100" data-name="Path 1100" class="cls-1" d="M256,204.16A51.84,51.84,0,1,0,307.841,256,51.9,51.9,0,0,0,256,204.16Zm0,79.246A27.406,27.406,0,1,1,283.407,256,27.442,27.442,0,0,1,256,283.406Z"/>
      </g>
    </g>
    <g id="Group_1607" data-name="Group 1607">
      <g id="Group_1606" data-name="Group 1606">
        <path id="Path_1101" data-name="Path 1101" class="cls-1" d="M256,0a12.216,12.216,0,0,0-12.217,12.217V58.03a12.217,12.217,0,0,0,24.434,0V12.217A12.217,12.217,0,0,0,256,0Z"/>
      </g>
    </g>
    <g id="Group_1609" data-name="Group 1609">
      <g id="Group_1608" data-name="Group 1608">
        <path id="Path_1102" data-name="Path 1102" class="cls-1" d="M256,441.753a12.216,12.216,0,0,0-12.217,12.217v45.813a12.217,12.217,0,1,0,24.434,0V453.97A12.217,12.217,0,0,0,256,441.753Z"/>
      </g>
    </g>
    <g id="Group_1611" data-name="Group 1611">
      <g id="Group_1610" data-name="Group 1610">
        <path id="Path_1103" data-name="Path 1103" class="cls-1" d="M437.021,74.98a12.221,12.221,0,0,0-17.279,0l-22.8,22.795a12.218,12.218,0,0,0,17.278,17.279l22.8-22.795A12.22,12.22,0,0,0,437.021,74.98Z"/>
      </g>
    </g>
    <g id="Group_1613" data-name="Group 1613">
      <g id="Group_1612" data-name="Group 1612">
        <path id="Path_1104" data-name="Path 1104" class="cls-1" d="M115.055,396.946a12.219,12.219,0,0,0-17.277,0l-22.8,22.8A12.218,12.218,0,0,0,92.259,437.02l22.8-22.8A12.22,12.22,0,0,0,115.055,396.946Z"/>
      </g>
    </g>
    <g id="Group_1615" data-name="Group 1615">
      <g id="Group_1614" data-name="Group 1614">
        <path id="Path_1105" data-name="Path 1105" class="cls-1" d="M115.055,97.776l-22.8-22.8A12.217,12.217,0,0,0,74.981,92.259l22.8,22.795a12.217,12.217,0,1,0,17.277-17.278Z"/>
      </g>
    </g>
    <g id="Group_1617" data-name="Group 1617">
      <g id="Group_1616" data-name="Group 1616">
        <path id="Path_1106" data-name="Path 1106" class="cls-1" d="M437.019,419.741l-22.8-22.8a12.218,12.218,0,1,0-17.279,17.279l22.8,22.8a12.217,12.217,0,1,0,17.277-17.279Z"/>
      </g>
    </g>
  </g>
</svg>
