<svg id="Group_354" data-name="Group 354" xmlns="http://www.w3.org/2000/svg" viewBox="0 0 45.749 57.05">
  <defs>
    <style>
      .cls-1 {
        fill: #2699fb;
      }
    </style>
  </defs>
  <path id="Path_361" data-name="Path 361" class="cls-1" d="M124.4,288.114c-.251.032-.444.048-.636.08-4.337.717-8.674,1.444-13.011,2.144a3.017,3.017,0,0,1-1.257-.053,1.713,1.713,0,0,1-1.155-1.722,1.744,1.744,0,0,1,1.406-1.652c1.749-.321,3.508-.6,5.268-.893,3.476-.578,6.947-1.193,10.434-1.69a10.572,10.572,0,0,1,2.92.171c2.257.321,4.514.679,6.754,1.091a3.035,3.035,0,0,1,1.455.717q5.984,5.711,11.915,11.476a1.8,1.8,0,0,1,.5,2.257,1.7,1.7,0,0,1-1.968.893,2.74,2.74,0,0,1-1.07-.652q-4.693-4.492-9.348-9.011c-.118-.112-.246-.214-.417-.369-.23,1.439-.449,2.807-.663,4.177q-.578,3.658-1.155,7.31a3.365,3.365,0,0,1-1.107,2c-2.653,2.439-5.289,4.893-7.941,7.326a.662.662,0,0,0-.2.85c1.107,3.086,2.118,6.214,3.31,9.268.717,1.84.4,3.615-1.824,4.4h-1.005a3.5,3.5,0,0,1-2.364-2.551c-1.262-3.722-2.6-7.417-3.909-11.123a2.831,2.831,0,0,1,.909-3.583q2.334-2.15,4.669-4.3a4.253,4.253,0,0,1,.353-.257c-.021-.043-.043-.08-.064-.123a4.538,4.538,0,0,0-.465-.027c-2.193.038-4.38.075-6.572.139a1.2,1.2,0,0,0-.717.321q-3.979,3.562-7.909,7.134a2.746,2.746,0,0,1-2.882.668,2.7,2.7,0,0,1-1.123-4.369c.5-.545,1.075-1.021,1.626-1.519,2.481-2.241,4.973-4.471,7.439-6.722a3.492,3.492,0,0,1,2.524-.968c1.834.021,3.674.005,5.567.005.578-3.674,1.144-7.219,1.717-10.84" transform="translate(-104.828 -269.183)"/>
  <path id="Path_362" data-name="Path 362" class="cls-1" d="M887.6,140.571a3.387,3.387,0,0,1-.936.332c-.867.048-1.738-.005-2.6.027-.476.016-.567-.241-.561-.61s.07-.647.556-.631c.9.027,1.813-.027,2.717.027.283.016.556.273.834.417C887.6,140.277,887.6,140.421,887.6,140.571Z" transform="translate(-841.855 -132.325)"/>
  <path id="Path_363" data-name="Path 363" class="cls-1" d="M452.2,2c-.032.251-.059.5-.1.877-.267-.107-.481-.2-.7-.283L451.865,2Z" transform="translate(-432.866 -2)"/>
  <path id="Path_364" data-name="Path 364" class="cls-1" d="M523.037,88.9l-2.219-.947a4.506,4.506,0,0,1,1.925-1.551,5.019,5.019,0,1,1-2.957,5.139c-.054-.519.225-.834.818-.936a2.289,2.289,0,0,1,.331-.011C522.229,90.586,522.684,90.228,523.037,88.9Z" transform="translate(-497.588 -81.479)"/>
  <path id="Path_365" data-name="Path 365" class="cls-1" d="M484.984,87.83c-.535.225-.957.845-1.685.39V87.193C484.412,86.733,484.535,86.782,484.984,87.83Z" transform="translate(-463.06 -82.375)"/>
  <path id="Path_366" data-name="Path 366" class="cls-1" d="M468.3,182.063c-.6-.043-1.134.118-1.369-.4a.627.627,0,0,1,1.086-.551C468.2,181.325,468.2,181.694,468.3,182.063Z" transform="translate(-447.55 -171.356)"/>
  <path id="Path_367" data-name="Path 367" class="cls-1" d="M804.9,145.815c.021-.471.139-.5,1.2-.358C806.13,145.912,806.114,145.917,804.9,145.815Z" transform="translate(-767.462 -137.714)"/>
  <path id="Path_368" data-name="Path 368" class="cls-1" d="M758.724,146.2c-.112.706-.631.353-.93.406-.337.059-.342,0-.321-.406Z" transform="translate(-722.564 -138.489)"/>
  <path id="Path_369" data-name="Path 369" class="cls-1" d="M543.591,60.755c-.016.219-.038.433-.07.834-.3-.176-.508-.3-.722-.428.2-.187.4-.374.6-.562C543.468,60.648,543.533,60.7,543.591,60.755Z" transform="translate(-519.378 -57.466)"/>
  <path id="Path_370" data-name="Path 370" class="cls-1" d="M365.651,146.52a1.32,1.32,0,0,1-.385-.011c-.075-.027-.112-.15-.166-.23a3.391,3.391,0,0,1,.711-.182c.134-.005.273.134.412.209-.059.075-.107.193-.187.214a1.317,1.317,0,0,1-.385.011Z" transform="translate(-351.181 -138.391)"/>
  <path id="Path_371" data-name="Path 371" class="cls-1" d="M429.471,77.68c-.214.182-.4.332-.684.578-.086-.337-.267-.7-.182-.781C428.888,77.2,429.2,77.338,429.471,77.68Z" transform="translate(-411.269 -73.3)"/>
  <path id="Path_372" data-name="Path 372" class="cls-1" d="M383.834,217.575c-.187.161-.369.316-.674.572-.075-.342-.251-.733-.166-.8C383.294,217.1,383.6,217.228,383.834,217.575Z" transform="translate(-368.097 -205.708)"/>
  <path id="Path_373" data-name="Path 373" class="cls-1" d="M413.182,181.932c-.283.241-.449.385-.7.594a4.757,4.757,0,0,1-.294-.658c-.011-.037.187-.2.267-.187A4.2,4.2,0,0,1,413.182,181.932Z" transform="translate(-395.755 -172.071)"/>
  <path id="Path_374" data-name="Path 374" class="cls-1" d="M408.79,146.3c.155.519-.214.433-.46.406s-.69.2-.588-.406Z" transform="translate(-391.529 -138.583)"/>
  <path id="Path_375" data-name="Path 375" class="cls-1" d="M450.2,146.1c0-.46,0-.46.995-.39C451.3,146.173,451.3,146.173,450.2,146.1Z" transform="translate(-431.73 -137.991)"/>
  <path id="Path_376" data-name="Path 376" class="cls-1" d="M492.65,146.538H491.5c.027-.15.037-.38.075-.38a4.567,4.567,0,0,1,.936-.021C492.559,146.137,492.591,146.362,492.65,146.538Z" transform="translate(-470.822 -138.415)"/>
  <path id="Path_377" data-name="Path 377" class="cls-1" d="M324.255,146.537H323.1a1.782,1.782,0,0,1,.053-.374,4.928,4.928,0,0,1,.931-.032C324.143,146.136,324.18,146.35,324.255,146.537Z" transform="translate(-311.427 -138.414)"/>
  <path id="Path_378" data-name="Path 378" class="cls-1" d="M280.821,145.806c-.182-.417.075-.465.353-.412.251.048.743-.257.7.412Z" transform="translate(-271.352 -137.699)"/>
  <path id="Path_379" data-name="Path 379" class="cls-1" d="M239.145,145.874c-.08-.674.412-.364.658-.412s.561-.043.385.412Z" transform="translate(-231.954 -137.761)"/>
  <path id="Path_380" data-name="Path 380" class="cls-1" d="M196.028,145.692a6.048,6.048,0,0,1,.824.016c.08.011.134.193.2.294a6.09,6.09,0,0,1-.872.118c-.1,0-.193-.187-.283-.289C195.943,145.789,195.986,145.74,196.028,145.692Z" transform="translate(-191.03 -138.002)"/>
  <path id="Path_381" data-name="Path 381" class="cls-1" d="M155.56,145.876c-.107.1-.2.241-.326.273a1.532,1.532,0,0,1-.6,0c-.086-.016-.155-.144-.23-.219.086-.07.16-.193.251-.2a7.373,7.373,0,0,1,.77-.011C155.464,145.769,155.512,145.822,155.56,145.876Z" transform="translate(-151.749 -138.025)"/>
  <path id="Path_382" data-name="Path 382" class="cls-1" d="M112.293,145.918c-.016-.679.476-.353.733-.412.294-.064.471.048.321.412Z" transform="translate(-111.894 -137.805)"/>
  <path id="Path_383" data-name="Path 383" class="cls-1" d="M309.013,68.438H308.2c.139-.289.246-.513.358-.738.2.187.4.374.6.562C309.1,68.326,309.061,68.385,309.013,68.438Z" transform="translate(-297.324 -64.187)"/>
</svg>
