<svg xmlns="http://www.w3.org/2000/svg" viewBox="0 0 330 512">
  <defs>
    <style>
      .cls-1 {
        fill: #3ba3fb;
      }
    </style>
  </defs>
  <g id="fly" transform="translate(-91)">
    <path id="Path_1096" data-name="Path 1096" class="cls-1" d="M316,60a60,60,0,1,0-60,60A60.068,60.068,0,0,0,316,60ZM256,90a30,30,0,1,1,30-30A30.034,30.034,0,0,1,256,90Z"/>
    <path id="Path_1097" data-name="Path 1097" class="cls-1" d="M421,165V44.912A45,45,0,0,0,331,45v75H181V45a45,45,0,0,0-90,0V165.058A45.077,45.077,0,0,0,124.493,208.5L91.212,404.489A15,15,0,0,0,106,422h75v45a44.971,44.971,0,0,0,75,33.505A44.971,44.971,0,0,0,331,467V422h75a15,15,0,0,0,14.788-17.511L387.507,208.5A45.077,45.077,0,0,0,421,165ZM376,30a15.017,15.017,0,0,1,15,15V60H361V45A15.017,15.017,0,0,1,376,30ZM279.787,150,256,173.787,232.213,150ZM136,30a15.017,15.017,0,0,1,15,15V60H121V45A15.017,15.017,0,0,1,136,30ZM123.762,392l30.906-182H181.01V392ZM211,330h30v92H211Zm60,0h30v92H271Zm30-30H211V270h90ZM226,482a15.017,15.017,0,0,1-15-15V452h30v15A15.017,15.017,0,0,1,226,482Zm60,0a15.017,15.017,0,0,1-15-15V452h30v15A15.017,15.017,0,0,1,286,482Zm45-90V210h26.333l30.906,182Zm45-212H316a15,15,0,0,0-15,15v45H211V195a15,15,0,0,0-15-15H136a15.017,15.017,0,0,1-15-15V90h30v45a15,15,0,0,0,15,15h23.787l55.606,55.606a15,15,0,0,0,21.213,0L322.213,150H346a15,15,0,0,0,15-15V90h30v75A15.017,15.017,0,0,1,376,180Z"/>
  </g>
</svg>
