<svg xmlns="http://www.w3.org/2000/svg" viewBox="0 0 540.602 502.635">
  <defs>
    <style>
      .cls-1 {
        fill: #2699fb;
      }
    </style>
  </defs>
  <g id="like" transform="translate(0 -1.826)">
    <path id="Path_1107" data-name="Path 1107" class="cls-1" d="M539.708,151.707C531.817,64.852,470.341,1.836,393.4,1.836c-51.256,0-98.188,27.583-124.6,71.79-26.169-44.779-71.177-71.8-121.612-71.8C70.27,1.826,8.783,64.841.9,151.7c-.624,3.836-3.181,24.027,4.6,56.954,11.208,47.493,37.1,90.692,74.847,124.9L268.683,504.461l191.572-170.9c37.751-34.216,63.639-77.4,74.847-124.908C542.879,175.734,540.322,155.543,539.708,151.707ZM514.86,203.889c-10.231,43.376-33.946,82.894-68.515,114.209l-177.536,158.4L94.318,318.14C59.686,286.762,35.981,247.254,25.74,203.878,18.379,172.719,21.4,155.117,21.415,155l.156-1.05C28.329,77.858,81.156,22.62,147.2,22.62c48.73,0,91.627,29.943,111.984,78.132l9.576,22.7,9.575-22.7C298.366,53.3,343.53,22.63,393.414,22.63c66.03,0,118.867,55.238,125.76,132.321C519.2,155.117,522.221,172.729,514.86,203.889Z" transform="translate(0)"/>
    <path id="Path_1108" data-name="Path 1108" class="cls-1" d="M109.967,7.9A104.086,104.086,0,0,0,6,111.872a10.4,10.4,0,1,0,20.794,0A83.272,83.272,0,0,1,109.967,28.7a10.4,10.4,0,1,0,0-20.794Z" transform="translate(56.369 57.114)"/>
  </g>
</svg>
