<?xml version="1.0" encoding="utf-8"?>
<!-- Generator: Adobe Illustrator 21.0.2, SVG Export Plug-In . SVG Version: 6.00 Build 0)  -->
<svg version="1.1" id="Layer_1" xmlns="http://www.w3.org/2000/svg" xmlns:xlink="http://www.w3.org/1999/xlink" x="0px" y="0px"
	 viewBox="0 0 47.2 59.2" style="enable-background:new 0 0 47.2 59.2;" xml:space="preserve">
<style type="text/css">
	.st0{fill:#2699FB;}
</style>
<g>
	<g id="trophy" transform="translate(0)">
		<g id="Group_368">
			<g id="Group_367">
				<path id="Path_394" class="st0" d="M46.2,9.4c-0.8-0.9-1.9-1.4-3-1.4h-3.8V6.8c0-1.5-1.2-2.7-2.7-2.7H10.5
					c-1.5,0-2.7,1.2-2.7,2.7V8H4c-1.2,0-2.3,0.5-3,1.4c-0.8,0.9-1.1,2-0.9,3.2c1,6.3,4.9,11.7,10.5,14.7c0.5,1.2,1.1,2.3,1.7,3.5
					c1.6,3.1,4.2,5.5,7.4,7c0.3,2.9-1.6,5.6-4.5,6.2h0c-0.6,0.1-1,0.6-1,1.2V51h-2.4C9.7,51,8,52.7,8,54.9c0,0,0,0,0,0v3
					c0,0.7,0.6,1.3,1.3,1.3h0h28.8c0.7,0,1.3-0.6,1.3-1.3v0v-3c0-2.1-1.7-3.8-3.8-3.8h-2.4v-5.8c0-0.6-0.4-1.1-1-1.2h0
					c-2.9-0.7-4.8-3.4-4.5-6.3c3.1-1.5,5.6-3.9,7.3-6.9c0.7-1.1,1.2-2.3,1.7-3.5c5.6-3,9.4-8.5,10.5-14.7
					C47.3,11.4,47,10.3,46.2,9.4z M2.6,12.2c-0.1-0.4,0-0.8,0.3-1.1c0.3-0.3,0.7-0.5,1.1-0.5h3.8v2.3c0,3.5,0.4,7.1,1.4,10.5
					C5.7,20.6,3.3,16.6,2.6,12.2z M35.5,53.6c0.7,0,1.3,0.6,1.3,1.3c0,0,0,0,0,0v1.7H10.5v-1.7c0-0.7,0.6-1.3,1.3-1.3L35.5,53.6z
					 M30.6,46.5V51H16.7v-4.6H30.6z M20,43.9c0.3-0.4,0.6-0.7,0.9-1.1c0.8-1.3,1.3-2.8,1.3-4.4c0.9,0.1,1.9,0.1,2.9,0
					c0,2,0.8,4,2.2,5.5L20,43.9L20,43.9z M36.8,12.9c0.1,5.8-1.3,11.5-4.1,16.6c-2.5,4.2-5.7,6.5-9.1,6.5s-6.6-2.3-9.1-6.5
					c-2.8-5.1-4.2-10.8-4.1-16.6V6.8c0-0.1,0.1-0.2,0.2-0.2l0,0h26.1c0.1,0,0.2,0.1,0.2,0.2c0,0,0,0,0,0L36.8,12.9z M44.6,12.2
					c-0.7,4.4-3.1,8.4-6.6,11.2c0.9-3.4,1.4-7,1.4-10.5v-2.3h3.8c0.4,0,0.8,0.2,1.1,0.5C44.6,11.3,44.7,11.7,44.6,12.2L44.6,12.2z"
					/>
			</g>
		</g>
	</g>
	<polygon class="st0" points="37.1,0 27.3,17.5 18.1,20.5 10,40.9 20.3,24.7 26.8,24.7 	"/>
</g>
</svg>
