<svg xmlns="http://www.w3.org/2000/svg" viewBox="0 0 48.099 54.726">
  <defs>
    <style>
      .cls-1 {
        fill: #2699fb;
      }
    </style>
  </defs>
  <g id="skull" transform="translate(0)">
    <path id="Path_384" data-name="Path 384" class="cls-1" d="M24.05,0A24.034,24.034,0,0,0,12.44,45.087L8.934,54.726H39.165l-3.506-9.639A24.034,24.034,0,0,0,24.05,0ZM32.98,42.859l-1.316.626,2.922,8.034H28.859V48.1H25.653v3.42H22.446V48.1H19.24v3.42H13.512l2.922-8.034-1.316-.626A20.833,20.833,0,0,1,29.887,4.04L24.219,8.29l5.865,2.933L26.539,13l1.434,2.868,9.281-4.64-6.961-3.48,3.1-2.322a20.821,20.821,0,0,1-.409,37.439Zm0,0"/>
    <path id="Path_385" data-name="Path 385" class="cls-1" d="M184.395,358.126l2.267,2.267,2.073-2.073,2.073,2.073,2.267-2.267-4.34-4.341Zm0,0" transform="translate(-164.685 -315.97)"/>
    <path id="Path_386" data-name="Path 386" class="cls-1" d="M240,241.6a8.017,8.017,0,0,0,16.033,0V240H240Zm12.552,1.6a4.81,4.81,0,0,1-9.07,0Zm0,0" transform="translate(-214.347 -214.347)"/>
    <path id="Path_387" data-name="Path 387" class="cls-1" d="M76.033,241.6V240H60v1.6a8.017,8.017,0,0,0,16.033,0Zm-8.017,4.81a4.82,4.82,0,0,1-4.535-3.208h9.07A4.82,4.82,0,0,1,68.017,246.413Zm0,0" transform="translate(-53.587 -214.347)"/>
  </g>
</svg>
