<svg xmlns="http://www.w3.org/2000/svg" viewBox="0 0 48 48">
  <defs>
    <style>
      .cls-1 {
        fill: #2699fb;
      }
    </style>
  </defs>
  <g id="target" transform="translate(0 0)">
    <g id="Group_356" data-name="Group 356" transform="translate(15.562 9.937)">
      <g id="Group_355" data-name="Group 355">
        <path id="Path_388" data-name="Path 388" class="cls-1" d="M166.937,106a.938.938,0,1,0,.938.938A.938.938,0,0,0,166.937,106Z" transform="translate(-166 -106)"/>
      </g>
    </g>
    <g id="Group_358" data-name="Group 358">
      <g id="Group_357" data-name="Group 357">
        <path id="Path_389" data-name="Path 389" class="cls-1" d="M47.062,23.062H43.946A20.2,20.2,0,0,0,24.937,4.054V.937a.937.937,0,0,0-1.875,0V4.054A20.2,20.2,0,0,0,4.054,23.062H.937a.937.937,0,1,0,0,1.875H4.054A20.2,20.2,0,0,0,23.062,43.946v3.117a.937.937,0,0,0,1.875,0V43.946A20.2,20.2,0,0,0,43.946,24.937h3.117a.937.937,0,1,0,0-1.875Zm-24,19.006A18.38,18.38,0,0,1,5.932,24.937H8.091A15.96,15.96,0,0,0,23.062,39.909ZM24,34.312a.937.937,0,0,0-.937.937V38.03A14.083,14.083,0,0,1,9.969,24.937H12.75a.937.937,0,1,0,0-1.875H9.969a13.964,13.964,0,0,1,4.064-8.974.937.937,0,0,0-1.33-1.322,15.826,15.826,0,0,0-4.613,10.3H5.932A18.38,18.38,0,0,1,23.062,5.932V8.091A15.875,15.875,0,0,0,19.9,8.6a.937.937,0,1,0,.483,1.812,14,14,0,0,1,2.683-.441V12.75a.937.937,0,0,0,1.875,0V9.969A14.083,14.083,0,0,1,38.03,23.062H35.25a.937.937,0,1,0,0,1.875H38.03A14.083,14.083,0,0,1,24.937,38.03V35.25A.937.937,0,0,0,24,34.312Zm.938,7.756V39.909A15.96,15.96,0,0,0,39.909,24.937h2.159A18.38,18.38,0,0,1,24.937,42.068ZM39.909,23.062A15.96,15.96,0,0,0,24.937,8.091V5.932A18.38,18.38,0,0,1,42.068,23.062Z"/>
      </g>
    </g>
    <g id="Group_360" data-name="Group 360" transform="translate(15.562 15.562)">
      <g id="Group_359" data-name="Group 359">
        <path id="Path_390" data-name="Path 390" class="cls-1" d="M181.937,173.5h-1.006a6.576,6.576,0,0,0-5.557-5.557v-1.006a.937.937,0,0,0-1.875,0v1.006a6.576,6.576,0,0,0-5.557,5.557h-1.006a.937.937,0,0,0,0,1.875h1.006a6.576,6.576,0,0,0,5.557,5.557v1.006a.937.937,0,1,0,1.875,0v-1.006a6.576,6.576,0,0,0,5.557-5.557h1.006a.937.937,0,1,0,0-1.875Zm-8.437,5.531a4.7,4.7,0,0,1-3.656-3.656H173.5Zm0-5.531h-3.656a4.7,4.7,0,0,1,3.656-3.656Zm1.875,5.531v-3.656h3.656A4.7,4.7,0,0,1,175.375,179.031Zm0-5.531v-3.656a4.7,4.7,0,0,1,3.656,3.656Z" transform="translate(-166 -166)"/>
      </g>
    </g>
  </g>
</svg>
