<svg xmlns="http://www.w3.org/2000/svg" viewBox="0 0 58.541 46.363">
  <defs>
    <style>
      .cls-1 {
        fill: #2699fb;
      }
    </style>
  </defs>
  <g id="three-stars" transform="translate(0 0)">
    <g id="Group_362" data-name="Group 362" transform="translate(15.784)">
      <g id="Group_361" data-name="Group 361">
        <path id="Path_391" data-name="Path 391" class="cls-1" d="M163.88,62.585a1.642,1.642,0,0,0-1.313-1.106l-7.339-1.071-3.283-6.648a1.631,1.631,0,0,0-2.926,0l-3.283,6.648L138.4,61.479a1.642,1.642,0,0,0-1.313,1.106,1.615,1.615,0,0,0,.415,1.671l5.311,5.173-1.256,7.316a1.629,1.629,0,0,0,2.362,1.717L150.481,75l6.567,3.456a1.821,1.821,0,0,0,1.717-.127,1.608,1.608,0,0,0,.645-1.59l-1.256-7.316,5.311-5.173A1.657,1.657,0,0,0,163.88,62.585ZM155.3,67.7a1.66,1.66,0,0,0-.472,1.44l.841,4.908-4.413-2.316a1.593,1.593,0,0,0-1.509,0l-4.4,2.316.841-4.908a1.607,1.607,0,0,0-.472-1.44l-3.56-3.479,4.931-.714a1.633,1.633,0,0,0,1.221-.887l2.2-4.459,2.2,4.459a1.6,1.6,0,0,0,1.221.887l4.931.714Z" transform="translate(-137 -52.85)"/>
      </g>
    </g>
    <g id="Group_364" data-name="Group 364" transform="translate(31.579 20.565)">
      <g id="Group_363" data-name="Group 363">
        <path id="Path_392" data-name="Path 392" class="cls-1" d="M300.98,241.085a1.642,1.642,0,0,0-1.313-1.106l-7.339-1.071-3.283-6.648a1.631,1.631,0,0,0-2.926,0l-3.284,6.648-7.339,1.071a1.642,1.642,0,0,0-1.313,1.106,1.615,1.615,0,0,0,.415,1.671l5.311,5.173-1.256,7.316a1.64,1.64,0,0,0,.645,1.59,1.624,1.624,0,0,0,1.717.127l6.567-3.456,6.567,3.456a1.82,1.82,0,0,0,1.717-.127,1.608,1.608,0,0,0,.645-1.59l-1.256-7.316,5.311-5.173A1.615,1.615,0,0,0,300.98,241.085Zm-8.606,5.1a1.66,1.66,0,0,0-.472,1.44l.841,4.908-4.4-2.316a1.593,1.593,0,0,0-1.509,0l-4.4,2.316.841-4.908a1.607,1.607,0,0,0-.472-1.44l-3.56-3.468,4.931-.714a1.633,1.633,0,0,0,1.221-.887l2.2-4.459,2.2,4.459a1.6,1.6,0,0,0,1.221.887l4.931.714Z" transform="translate(-274.1 -231.35)"/>
      </g>
    </g>
    <g id="Group_366" data-name="Group 366" transform="translate(0 20.565)">
      <g id="Group_365" data-name="Group 365">
        <path id="Path_393" data-name="Path 393" class="cls-1" d="M26.88,241.085a1.623,1.623,0,0,0-1.313-1.106l-7.339-1.071-3.283-6.648a1.631,1.631,0,0,0-2.926,0l-3.283,6.648L1.4,239.979a1.642,1.642,0,0,0-1.313,1.106A1.615,1.615,0,0,0,.5,242.756l5.311,5.173-1.256,7.316a1.64,1.64,0,0,0,.645,1.59,1.624,1.624,0,0,0,1.717.127l6.567-3.456,6.567,3.456a1.82,1.82,0,0,0,1.717-.127,1.608,1.608,0,0,0,.645-1.59l-1.256-7.316,5.311-5.173A1.657,1.657,0,0,0,26.88,241.085Zm-8.606,5.1a1.66,1.66,0,0,0-.472,1.44l.841,4.908-4.4-2.316a1.593,1.593,0,0,0-1.509,0l-4.4,2.316.841-4.908a1.607,1.607,0,0,0-.472-1.44l-3.571-3.468,4.931-.714a1.633,1.633,0,0,0,1.221-.887l2.2-4.459,2.2,4.459a1.6,1.6,0,0,0,1.221.887l4.931.714Z" transform="translate(0 -231.35)"/>
      </g>
    </g>
  </g>
</svg>
