<svg xmlns="http://www.w3.org/2000/svg" viewBox="0 0 513.355 366.162">
  <defs>
    <style>
      .cls-1 {
        fill: #3ba3fb;
      }

      .cls-2, .cls-3, .cls-4 {
        fill: none;
        stroke: #3ba3fb;
      }

      .cls-2 {
        stroke-linecap: round;
        stroke-miterlimit: 10;
        stroke-width: 15px;
      }

      .cls-2, .cls-4 {
        stroke-linejoin: round;
      }

      .cls-3, .cls-4 {
        stroke-width: 10px;
        font-size: 245px;
        font-family: GTWalsheimProTrial-CondensedRegular, GT Walsheim Pro Trial;
      }
    </style>
  </defs>
  <g id="Group_1601" data-name="Group 1601" transform="translate(-9804 -3962.629)">
    <g id="Group_1600" data-name="Group 1600">
      <path id="Path_1091" data-name="Path 1091" class="cls-1" d="M209.374,413.875A172.414,172.414,0,0,1,103.686,162.369c8.238-2.4,30.184-10.341,41.228-29.2,13.467-22.991,4.849-52.2,4.475-53.435a7.5,7.5,0,0,0-8.79-5.15c-1.257.277-30.952,7.045-44.42,30.036-10.944,18.682-7.3,41.473-5.354,50.019A186.366,186.366,0,0,0,73.3,196.621a55.7,55.7,0,0,0-13.847-17.374h0c-20.635-16.855-50.827-12.853-52.1-12.672A7.5,7.5,0,0,0,.91,174.463c.08,1.285,2.18,31.669,22.816,48.526,13.79,11.265,31.847,13.213,42.69,13.213h.262c-.216,3.675-.344,7.36-.344,11.055a187.055,187.055,0,0,0,6.627,49.39,54.375,54.375,0,0,0-17.985-7.2c-26.154-5.1-50.864,12.7-51.9,13.464a7.5,7.5,0,0,0-1.949,10,86.427,86.427,0,0,0,16.666,18.732,7.5,7.5,0,1,0,9.616-11.512,72.278,72.278,0,0,1-8.976-9.032c7.606-4.049,20.791-9.441,33.677-6.928s23.081,12.461,28.606,19.066c-6.9,3.672-18.4,8.45-30.094,7.426a7.5,7.5,0,1,0-1.306,14.944q2.293.2,4.548.2c14.22,0,27.125-5.6,34.831-9.818a188.242,188.242,0,0,0,33.477,44.71,55.7,55.7,0,0,0-21.9,3.707c-24.739,9.9-35.85,38.254-36.31,39.457a7.5,7.5,0,0,0,3.784,9.458,84.7,84.7,0,0,0,32.977,7.254,55.1,55.1,0,0,0,20.529-3.729c16.656-6.663,27.126-21.686,32.336-31.164a186.426,186.426,0,0,0,51.945,22.693,7.5,7.5,0,0,0,3.848-14.5Zm-176.16-202.5c-10.176-8.313-14.455-21.917-16.2-30.348,8.587.01,22.715,1.479,32.951,9.84h0c10.167,8.306,14.447,21.892,16.193,30.325C57.544,221.16,43.378,219.676,33.214,211.373Zm75.908-99.165c6.635-11.328,19.4-17.655,27.459-20.682,1.3,8.517,2.024,22.741-4.61,34.066s-19.4,17.655-27.459,20.682C103.209,137.757,102.487,123.533,109.122,112.208Zm6.551,310.709c-12.2,4.881-26.176,2.039-34.4-.516,4.166-7.51,12.289-19.161,24.56-24.07,12.2-4.881,26.176-2.04,34.4.516C136.068,406.357,127.945,418.008,115.673,422.917Z" transform="translate(9804 3888.216)"/>
      <path id="Path_1092" data-name="Path 1092" class="cls-1" d="M510.285,302.915c-1.04-.761-25.753-18.563-51.9-13.464a54.375,54.375,0,0,0-17.985,7.2,187.014,187.014,0,0,0,6.627-49.39c0-3.7-.128-7.383-.345-11.059l.26,0a81.473,81.473,0,0,0,25.355-3.858,7.5,7.5,0,0,0-4.755-14.227,66.223,66.223,0,0,1-20.342,3.079c1.747-8.437,6.027-22.023,16.193-30.328s24.337-9.789,32.948-9.817c-1.226,5.921-3.7,14.381-8.6,21.782a7.5,7.5,0,1,0,12.512,8.274c10.831-16.378,12.144-35.821,12.194-36.641A7.5,7.5,0,0,0,506,166.574c-1.276-.18-31.468-4.183-52.1,12.674a55.7,55.7,0,0,0-13.847,17.374,186.367,186.367,0,0,0-17.521-41.977c1.949-8.546,5.59-31.337-5.354-50.019-13.468-22.991-43.163-29.759-44.42-30.036a7.5,7.5,0,0,0-8.791,5.15c-.374,1.232-8.992,30.444,4.475,53.435,11.044,18.854,32.991,26.794,41.228,29.2A172.414,172.414,0,0,1,303.981,413.876a7.5,7.5,0,0,0,3.848,14.5,186.413,186.413,0,0,0,51.945-22.693c5.21,9.478,15.68,24.5,32.336,31.164a55.087,55.087,0,0,0,20.529,3.729,84.72,84.72,0,0,0,32.977-7.254,7.5,7.5,0,0,0,3.784-9.458c-.461-1.2-11.572-29.56-36.311-39.457a55.709,55.709,0,0,0-21.9-3.707,188.255,188.255,0,0,0,33.476-44.708c7.7,4.217,20.6,9.815,34.834,9.815a50.567,50.567,0,0,0,9.69-.917c26.153-5.1,42.369-30.879,43.046-31.974A7.5,7.5,0,0,0,510.285,302.915ZM407.52,398.331c12.2,4.881,20.359,16.577,24.549,24.1-8.2,2.564-22.116,5.4-34.386.488-12.2-4.881-20.359-16.577-24.549-24.1C381.33,396.254,395.249,393.421,407.52,398.331ZM381.386,125.592c-6.636-11.328-5.913-25.554-4.611-34.066,8.066,3.029,20.826,9.356,27.46,20.682s5.913,25.554,4.611,34.066C400.779,143.245,388.02,136.918,381.386,125.592Zm84.932,204.573c-12.9,2.514-26.1-2.889-33.694-6.936,5.5-6.6,15.654-16.526,28.627-19.055,12.9-2.512,26.1,2.889,33.694,6.937C489.449,317.709,479.291,327.636,466.318,330.165Z" transform="translate(9804 3888.216)"/>
    </g>
    <path id="Path_1094" data-name="Path 1094" class="cls-2" d="M49.95,338.306" transform="translate(10010.55 3888.216)"/>
    <path id="Path_1095" data-name="Path 1095" class="cls-2" d="M22.6,325.885" transform="translate(10037.9 3888.216)"/>
    <g id="Group_1599" data-name="Group 1599" transform="translate(-4)">
      <text id="_0" data-name="0" class="cls-3" transform="translate(10112 4219)"><tspan x="-63.577" y="0">0</tspan></text>
      <text id="_1" data-name="1" class="cls-4" transform="translate(9994 4219)"><tspan x="-40.18" y="0">1</tspan></text>
    </g>
  </g>
</svg>
